<svg width="186" height="38" viewBox="0 0 186 38" fill="none" xmlns="http://www.w3.org/2000/svg">
    <g clip-path="url(#clip0_5_2)">
        <path d="M56.32 20.13V24.82L54.32 26.82H47.17V22.86H52.37V20.12H47.17V16.06H52.37V13.32H44.43V26.82H40.47V9.37H54.32L56.32 11.35V16.07L54.32 18.07L56.32 20.13Z" fill="white" />
        <path d="M75.4 24.82L73.21 26.85H66.27V22.95H71.04V13.38H63.29V26.86H59.04V9.34H73.2L75.39 11.34V24.82H75.4Z" fill="white" />
        <path d="M93.99 13.32H88V26.85H84.04V13.32H78.08V9.37H93.98V13.32H93.99Z" fill="white" />
        <path d="M105.75 20.1H100.71V26.85H96.76V9.34H100.71V16.09H105.75V20.1ZM111.92 26.85H108.04V9.34H111.92V26.85Z" fill="white" />
        <path d="M130.06 26.83H116.56L114.61 24.83V11.43L116.56 9.42999H128.11L130.06 11.43V20.11H121.15V16.15H126.21V13.38H118.51V22.87H130.06V26.83Z" fill="white" />
        <path d="M144.7 26.85V15.35L140.77 20.1L136.81 15.35V26.85H132.83V9.38998H136.81L140.77 14.16L144.7 9.38998H148.71V26.85H144.7Z" fill="white" />
        <path d="M166.93 26.83H153.43L151.48 24.83V11.43L153.43 9.42999H164.98L166.93 11.43V20.11H158.02V16.15H163.08V13.38H155.38V22.87H166.93V26.83Z" fill="white" />
        <path d="M183.34 26.85H169.65V22.9H181.44V20.08H169.65V11.38L171.65 9.35001H185.34V13.28H173.55V16.13H185.34V24.83L183.34 26.85Z" fill="white" />
        <path d="M8.97 27.33V4.36L0 0V33.31L9.08 37.99L30.73 23.54V12.79L14.09 5.98L14.1 15.57L21.75 18.74L8.97 27.33Z" fill="white" />
    </g>
    <defs>
        <clipPath id="clip0_5_2">
            <rect width="185.34" height="37.99" fill="white" />
        </clipPath>
    </defs>
</svg>