<svg xmlns="http://www.w3.org/2000/svg" width="1596" height="261" viewBox="0 0 1596 261" fill="none"><g clip-path="url(#clip0_21_1372)"><path d="M332.7 204.9V55.2002H395.5C442.6 55.2002 476.5 83.5002 476.5 129.9C476.5 176.3 442.6 204.9 395.7 204.9H332.6H332.7ZM437.1 129.9C437.1 106.8 423.2 88.8002 395.8 88.8002H371.3V171.2H395.5C421.8 171.2 437 152.1 437 129.9H437.1Z" fill="white"></path><path d="M559 204.9V194.1C552.3 202.2 539.2 207.6 525.3 207.6C511.4 207.6 488 196.4 488 171.9C488 147.4 508.6 137.1 525.3 137.1C542 137.1 552.5 141.6 559 149.7V136.7C559 127.3 550.9 121 537 121C523.1 121 515 125 506.3 132.4L494 110.6C507.9 98.7003 526.5 93.8003 543.2 93.8003C569.2 93.8003 593.7 103.5 593.7 137.1V204.9H559ZM559 177.1V167.4C555.4 162.5 547.3 159.8 539.7 159.8C532.1 159.8 522.4 163.8 522.4 172.4C522.4 181 530.5 185 539.7 185C548.9 185 555.4 182.3 559 177.1Z" fill="white"></path><path d="M618.699 204.9V96.5H653.299V109.7C660.499 100.9 674.199 93.5 687.199 93.5V126.7C685.199 126.3 682.299 125.8 678.699 125.8C669.699 125.8 657.799 129.6 653.299 135.7V204.8H618.699V204.9Z" fill="white"></path><path d="M771.499 204.9L747.699 166.5L737.399 178.8V204.8H702.799V55.2002H737.399V139.8L770.399 96.5002H812.099L772.099 145.9L814.099 204.9H771.499Z" fill="white"></path><path d="M967.199 204.9L942.099 154.6H922.299V204.9H883.699V55.2002H958.699C991.899 55.2002 1010.8 77.2002 1010.8 105C1010.8 132.8 994.899 145 980.899 149.9L1011.4 204.9H967.199ZM971.499 104.8C971.499 94.7002 962.999 88.9002 952.899 88.9002H922.399V121H952.899C962.999 121 971.499 115.4 971.499 104.8Z" fill="white"></path><path d="M1017.3 150.6C1017.3 119.2 1041.1 93.8003 1075 93.8003C1108.9 93.8003 1130.4 117.4 1130.4 154.2V161.6H1053.2C1055.2 171.7 1064.6 180.9 1080.4 180.9C1096.2 180.9 1101.3 177.5 1107.3 171.7L1121.9 193.2C1111.1 202.9 1093.2 207.6 1076.6 207.6C1043.2 207.6 1017.3 185.8 1017.3 150.6ZM1075 120.5C1060 120.5 1054.1 131.3 1052.8 139.1H1097.5C1096.6 131.5 1091 120.5 1075.1 120.5H1075Z" fill="white"></path><path d="M1211.4 204.9V194.1C1204.7 202.2 1191.6 207.6 1177.7 207.6C1163.8 207.6 1140.4 196.4 1140.4 171.9C1140.4 147.4 1161 137.1 1177.7 137.1C1194.4 137.1 1204.9 141.6 1211.4 149.7V136.7C1211.4 127.3 1203.3 121 1189.4 121C1175.5 121 1167.4 125 1158.7 132.4L1146.4 110.6C1160.3 98.7003 1178.9 93.8003 1195.6 93.8003C1221.6 93.8003 1246.1 103.5 1246.1 137.1V204.9H1211.4ZM1211.4 177.1V167.4C1207.8 162.5 1199.7 159.8 1192.1 159.8C1184.5 159.8 1174.8 163.8 1174.8 172.4C1174.8 181 1182.9 185 1192.1 185C1201.3 185 1207.8 182.3 1211.4 177.1Z" fill="white"></path><path d="M1344.1 204.9V192.3C1335.1 202.6 1324.1 207.6 1312 207.6C1285.3 207.6 1264 187.4 1264 150.6C1264 113.8 1284.9 93.8002 1312 93.8002C1339.1 93.8002 1335.3 98.5002 1344.1 109.3V55.2002H1378.4V204.9H1344.1ZM1344.1 167.2V134C1339.6 128.2 1330.6 124.3 1323.2 124.3C1309.5 124.3 1299.4 134.4 1299.4 150.6C1299.4 166.8 1309.5 177.1 1323.2 177.1C1336.9 177.1 1339.6 173.1 1344.1 167.2Z" fill="white"></path><path d="M1396.6 150.6C1396.6 119.2 1420.4 93.8003 1454.3 93.8003C1488.2 93.8003 1509.7 117.4 1509.7 154.2V161.6H1432.5C1434.5 171.7 1443.9 180.9 1459.7 180.9C1475.5 180.9 1480.6 177.5 1486.6 171.7L1501.2 193.2C1490.4 202.9 1472.5 207.6 1455.9 207.6C1422.5 207.6 1396.6 185.8 1396.6 150.6ZM1454.3 120.5C1439.3 120.5 1433.4 131.3 1432.1 139.1H1476.8C1475.9 131.5 1470.3 120.5 1454.4 120.5H1454.3Z" fill="white"></path><path d="M1526.7 204.9V96.5H1561.3V109.7C1568.5 100.9 1582.2 93.5 1595.2 93.5V126.7C1593.2 126.3 1590.3 125.8 1586.7 125.8C1577.7 125.8 1565.8 129.6 1561.3 135.7V204.8H1526.7V204.9Z" fill="white"></path><path d="M235.33 0H25C11.1929 0 0 11.1929 0 25V235.33C0 249.137 11.1929 260.33 25 260.33H235.33C249.137 260.33 260.33 249.137 260.33 235.33V25C260.33 11.1929 249.137 0 235.33 0Z" fill="white"></path><path d="M145.01 130.16C145.01 138.36 138.36 145 130.17 145H85.5202L85.6402 145.12V174.69H115.21L115.33 174.81V174.69H128.94L128.98 174.76L129.04 174.89L143.84 203.12L144.05 203.52L144.5 204.37H55.9502V115.31H130.17C138.37 115.31 145.01 121.96 145.01 130.15V130.16Z" fill="black"></path><path d="M202.95 115.32C200.74 104.35 196.09 94.2702 189.62 85.6302C185.39 79.9702 180.34 74.9302 174.69 70.7002C166.05 64.2302 155.97 59.5802 145 57.3702C141.05 56.5702 137 56.0802 132.86 55.9502H55.9502V85.6402H85.6402V85.4502L85.8302 85.6402H130.2C135.4 85.6402 140.38 86.5302 145.01 88.1802C157.67 92.6302 167.72 102.67 172.19 115.33C173.72 119.62 174.59 124.24 174.7 129.03C174.73 129.4 174.73 129.79 174.73 130.17C174.73 130.55 174.73 130.94 174.7 131.31C174.6 136.1 173.72 140.72 172.19 145.01C169.96 151.3 166.37 156.94 161.76 161.56C160.44 162.9 159.03 164.14 157.54 165.32L171.46 191.87C172.56 191.13 173.64 190.36 174.7 189.57C177.56 187.43 180.25 185.09 182.76 182.56C185.22 180.1 187.49 177.47 189.57 174.69C196.07 166.05 200.72 155.97 202.94 145C203.76 141.04 204.25 136.97 204.38 132.8V127.46C204.25 123.32 203.76 119.27 202.96 115.32H202.95ZM174.69 174.69V174.5L174.88 174.69H174.69Z" fill="black"></path></g><defs><clipPath id="clip0_21_1372"><rect width="1595.2" height="260.33" fill="white"></rect></clipPath></defs></svg>