<svg xmlns="http://www.w3.org/2000/svg" width="252" height="42" viewBox="0 0 252 42" fill="none"><g clip-path="url(#clip0_94_85407)"><path d="M39.5329 42.0043H1.94893C1.43165 42.0031 0.93594 41.7963 0.570568 41.4291C0.205195 41.0619 -1.233e-06 40.5643 0 40.0456V2.35637C0 1.83803 0.205333 1.34093 0.570827 0.974408C0.936322 0.60789 1.43204 0.401982 1.94893 0.401982H39.4775C39.7338 0.40142 39.9877 0.451556 40.2246 0.549522C40.4616 0.647487 40.6769 0.791356 40.8583 0.972894C41.0398 1.15443 41.1837 1.37007 41.2819 1.60747C41.3801 1.84486 41.4307 2.09935 41.4307 2.35637V40.0456C41.4342 40.5566 41.2371 41.0484 40.882 41.4149C40.5269 41.7813 40.0423 41.993 39.5329 42.0043Z" fill="url(#paint0_linear_94_85407)"></path><path d="M14.6406 33.1308H11.0456C10.8739 33.1286 10.7099 33.0596 10.5881 32.9382C10.4663 32.8169 10.3964 32.6529 10.3931 32.4808V9.97755C10.3963 9.80505 10.4661 9.64052 10.5878 9.51852C10.7095 9.39652 10.8735 9.32653 11.0456 9.32324H14.6406C14.8126 9.32653 14.9767 9.39652 15.0984 9.51852C15.22 9.64052 15.2898 9.80505 15.2931 9.97755V32.4294C15.2965 32.5185 15.2823 32.6074 15.2513 32.691C15.2203 32.7746 15.1731 32.8512 15.1125 32.9164C15.0518 32.9816 14.9789 33.0341 14.8979 33.0709C14.8169 33.1077 14.7295 33.128 14.6406 33.1308Z" fill="white"></path><path d="M31.0849 9.97755V13.7324C31.0816 13.9037 31.0123 14.0672 30.8914 14.1884C30.7705 14.3096 30.6076 14.3791 30.4367 14.3824H17.8902C17.7208 14.3769 17.5599 14.3065 17.4409 14.1855C17.3218 14.0645 17.2537 13.9023 17.2505 13.7324V9.97755C17.2527 9.80544 17.3215 9.64092 17.4425 9.51881C17.5635 9.39669 17.7271 9.32656 17.8987 9.32324H30.4367C30.6083 9.32656 30.7719 9.39669 30.8929 9.51881C31.0138 9.64092 31.0827 9.80544 31.0849 9.97755Z" fill="white"></path><path d="M31.0849 19.3473V23.1064C31.0827 23.2786 31.0138 23.4431 30.8929 23.5652C30.7719 23.6873 30.6083 23.7574 30.4367 23.7607H17.8902C17.7201 23.7553 17.5586 23.6842 17.4394 23.5623C17.3203 23.4404 17.2526 23.2771 17.2505 23.1064V19.3473C17.2538 19.176 17.3231 19.0125 17.444 18.8913C17.5648 18.7701 17.7278 18.7006 17.8987 18.6973H30.4367C30.5236 18.6902 30.611 18.7021 30.6929 18.7323C30.7747 18.7624 30.8491 18.8101 30.9108 18.8719C30.9724 18.9338 31.0199 19.0083 31.05 19.0904C31.0801 19.1725 31.092 19.2602 31.0849 19.3473Z" fill="white"></path><path d="M31.0849 28.6697V32.4288C31.0816 32.6001 31.0123 32.7636 30.8914 32.8848C30.7705 33.006 30.6076 33.0755 30.4367 33.0788H17.8902C17.7208 33.0734 17.5599 33.0029 17.4409 32.8819C17.3218 32.7609 17.2537 32.5987 17.2505 32.4288V28.6697C17.2538 28.4983 17.3231 28.3349 17.444 28.2137C17.5648 28.0925 17.7278 28.0229 17.8987 28.0197H30.4367C30.6076 28.0229 30.7705 28.0925 30.8914 28.2137C31.0123 28.3349 31.0816 28.4983 31.0849 28.6697Z" fill="white"></path><path d="M26.8376 9.323H30.4369C30.6085 9.32632 30.7721 9.39645 30.8931 9.51856C31.0141 9.64068 31.0829 9.80519 31.0851 9.97731V23.1063C31.0829 23.2784 31.0141 23.443 30.8931 23.5651C30.7721 23.6872 30.6085 23.7573 30.4369 23.7606H26.8376C26.669 23.753 26.5096 23.681 26.3923 23.5593C26.2749 23.4376 26.2084 23.2756 26.2064 23.1063V9.97731C26.2036 9.89241 26.2178 9.8078 26.2482 9.72853C26.2786 9.64925 26.3247 9.57693 26.3836 9.51587C26.4425 9.45482 26.513 9.40627 26.591 9.37314C26.669 9.34 26.7529 9.32295 26.8376 9.323Z" fill="white"></path><path d="M54.7283 14.9382V19.8477H62.1743L63.0272 23.3074H54.6771V28.2212H64.7245V31.6937H51.2271V11.5298H64.7245V14.9895H54.7283V14.9382Z" fill="white"></path><path d="M78.9683 28.1698V31.6296H67.6714V11.5298H71.1215V28.1698H78.9683Z" fill="white"></path><path d="M84.9643 14.9382V19.8477H92.4103L93.2632 23.3074H84.9131V28.2212H94.9605V31.6937H81.4673V11.5298H94.9605V14.9895H84.9643V14.9382Z" fill="white"></path><path d="M117.951 11.4783V31.5781H114.484V17.3414L107.886 27.6051L101.289 17.3414V31.5781H97.8516V11.4783H101.6L107.895 21.2545L114.245 11.4783H117.951Z" fill="white"></path><path d="M124.847 14.938V19.8474H132.297L133.15 23.3072H124.8V28.2209H134.843V31.6935H121.35V11.5295H134.843V14.9893H124.847V14.938Z" fill="white"></path><path d="M152.989 11.4783V31.5781H149.287L141.244 17.8461V31.5781H137.794V11.4783H141.491L149.539 25.2103V11.4783H152.989Z" fill="white"></path><path d="M170.776 14.9382H164.882V31.5783H161.432V14.9382H155.534V11.4785H170.776V14.9382Z" fill="white"></path><path d="M189.374 12.0812C190.223 12.464 191 12.989 191.673 13.6336C192.327 14.2991 192.852 15.0808 193.221 15.9387C193.609 16.8229 193.797 17.7825 193.771 18.7484C193.772 19.7105 193.585 20.6636 193.221 21.5538C192.84 22.4053 192.317 23.185 191.673 23.8588C191.01 24.5161 190.231 25.0427 189.374 25.4112C188.487 25.8031 187.524 25.9915 186.555 25.9629H183.707L185.105 22.5075H186.555C187.05 22.5236 187.542 22.4335 187.999 22.2432C188.455 22.0529 188.866 21.7668 189.204 21.4041C189.557 21.0598 189.838 20.6466 190.027 20.19C190.216 19.7333 190.31 19.2428 190.304 18.7484C190.32 18.252 190.23 17.7578 190.041 17.2991C189.851 16.8403 189.565 16.4275 189.204 16.0884C188.86 15.7343 188.448 15.4542 187.992 15.2652C187.537 15.0762 187.048 14.9823 186.555 14.9893H182.508V31.6293H179.058V11.5296H186.508C187.492 11.501 188.471 11.6893 189.374 12.0812Z" fill="white"></path><path d="M214.212 31.6293H210.437L208.885 28.1696L207.337 24.7099L203.29 15.6906L199.238 24.7099H204.437L205.989 28.1696H197.669L196.121 31.6293H192.321L201.367 11.5295H205.166L214.212 31.6293Z" fill="white"></path><path d="M233.466 28.9223C232.517 29.8734 231.399 30.6378 230.17 31.176C227.575 32.2491 224.662 32.2491 222.067 31.176C220.831 30.6495 219.711 29.8836 218.77 28.9223C217.82 27.9697 217.056 26.847 216.519 25.6123C215.979 24.3284 215.707 22.9471 215.721 21.5538C215.702 20.1601 215.974 18.7777 216.519 17.4954C217.044 16.2536 217.809 15.1285 218.77 14.1853C219.732 13.2502 220.847 12.4879 222.067 11.9316C223.348 11.3863 224.727 11.1126 226.118 11.1276C227.509 11.1079 228.888 11.3818 230.165 11.9316C231.397 12.4676 232.517 13.2323 233.466 14.1853L231.018 16.64C230.366 15.9959 229.607 15.4706 228.775 15.0877C227.92 14.7272 227.003 14.5397 226.076 14.536C225.164 14.5344 224.263 14.7222 223.427 15.0877C222.573 15.4339 221.804 15.9638 221.176 16.64C220.544 17.3061 220.021 18.0682 219.628 18.8981C219.094 20.1833 218.955 21.599 219.227 22.9641C219.5 24.3291 220.172 25.5817 221.159 26.5616C222.467 27.8656 224.237 28.5974 226.082 28.5974C227.927 28.5974 229.697 27.8656 231.005 26.5616L233.466 28.9223Z" fill="white"></path><path d="M247.113 31.6937L239.505 24.0601V31.6296H236.055V11.5298H239.505V19.1463L247.049 11.5939H251.949L241.953 21.6053L251.996 31.6937H247.113Z" fill="white"></path><path d="M251.049 10.5759H232.856C232.63 10.5759 232.413 10.4858 232.253 10.3254C232.093 10.165 232.003 9.94744 232.003 9.7206V0.85531C232.003 0.628468 232.093 0.410916 232.253 0.250515C232.413 0.0901128 232.63 0 232.856 0H251.049C251.275 0 251.492 0.0901128 251.652 0.250515C251.812 0.410916 251.902 0.628468 251.902 0.85531V9.72488C251.901 9.95098 251.811 10.1674 251.651 10.3269C251.491 10.4864 251.275 10.5759 251.049 10.5759Z" fill="#FF004F"></path><path d="M234.857 2.30933H235.804V8.21952H234.857V2.30933ZM235.283 4.96506H237.181C237.321 4.96223 237.458 4.92711 237.582 4.86243C237.642 4.83205 237.695 4.78989 237.738 4.73845C237.781 4.68701 237.814 4.62737 237.834 4.56307C237.889 4.4178 237.922 4.26496 237.932 4.10975C237.927 3.95527 237.894 3.80299 237.834 3.66072C237.814 3.59642 237.781 3.53677 237.738 3.48533C237.695 3.4339 237.642 3.39173 237.582 3.36136C237.458 3.29668 237.321 3.26155 237.181 3.25872H235.283V2.35637H237.134C237.461 2.34551 237.786 2.41449 238.081 2.55737C238.357 2.70611 238.583 2.93193 238.733 3.2074C238.89 3.50106 238.975 3.82799 238.981 4.16107C238.976 4.49423 238.891 4.82127 238.733 5.11474C238.583 5.39021 238.357 5.61604 238.081 5.76478C237.788 5.91288 237.462 5.98214 237.134 5.96578H235.283V4.96506Z" fill="white"></path><path d="M239.902 2.30945H240.853V8.21964H239.902V2.30945ZM240.303 4.81551H242.354C242.477 4.8119 242.598 4.77655 242.704 4.71287C242.822 4.64876 242.91 4.54153 242.951 4.41351C243.014 4.28877 243.049 4.15146 243.053 4.01152C243.049 3.87157 243.014 3.73426 242.951 3.60952C242.883 3.49864 242.8 3.39787 242.704 3.31016C242.598 3.24648 242.477 3.21114 242.354 3.20752H240.29V2.30945H242.341C242.639 2.29065 242.935 2.359 243.194 2.50617C243.439 2.65517 243.644 2.86222 243.791 3.10916C243.939 3.3858 244.009 3.69799 243.992 4.01152C244.009 4.32505 243.939 4.63723 243.791 4.91387C243.644 5.16081 243.439 5.36786 243.194 5.51686C242.933 5.65821 242.638 5.72617 242.341 5.71358H240.29V4.81551H240.303ZM241.753 5.5639L242.751 5.36291L244.303 8.1726H243.151L241.753 5.5639Z" fill="white"></path><path d="M246.052 7.97184C245.754 7.77368 245.499 7.51776 245.301 7.21917C245.136 6.858 245.051 6.46581 245.049 6.06877V4.35815C245.051 3.95978 245.137 3.56629 245.301 3.20348C245.37 3.03502 245.472 2.88209 245.601 2.7536C245.73 2.62511 245.883 2.52363 246.052 2.45509C246.386 2.26588 246.768 2.17823 247.152 2.20277C247.531 2.20434 247.906 2.29052 248.248 2.45509C248.545 2.65164 248.801 2.90614 248.998 3.20348C249.168 3.56444 249.254 3.95917 249.25 4.35815V6.06877C249.249 6.46581 249.163 6.858 248.998 7.21917C248.93 7.38854 248.828 7.54241 248.699 7.67168C248.57 7.80095 248.417 7.90302 248.248 7.97184C247.905 8.13533 247.53 8.22015 247.15 8.22015C246.77 8.22015 246.395 8.13533 246.052 7.97184ZM247.757 7.16785C247.915 7.06227 248.051 6.92724 248.158 6.77013C248.259 6.58536 248.31 6.37766 248.307 6.16713V4.41375C248.317 4.20246 248.265 3.99289 248.158 3.81075C248.065 3.64186 247.926 3.5026 247.757 3.40876C247.577 3.30157 247.37 3.24954 247.16 3.25908C246.95 3.25565 246.743 3.30724 246.559 3.40876C246.403 3.51823 246.267 3.65429 246.158 3.81075C246.057 3.9953 246.005 4.20315 246.009 4.41375V6.16713C245.999 6.37837 246.051 6.5878 246.158 6.77013C246.252 6.93773 246.391 7.07553 246.559 7.16785C246.739 7.27905 246.949 7.33274 247.16 7.3218C247.367 7.32368 247.57 7.27055 247.749 7.16785H247.757Z" fill="white"></path></g><defs><linearGradient id="paint0_linear_94_85407" x1="37.4049" y1="37.3172" x2="3.4357" y2="4.70503" gradientUnits="userSpaceOnUse"><stop stop-color="#08AEEC"></stop><stop offset="1" stop-color="#20E2AD"></stop></linearGradient><clipPath id="clip0_94_85407"><rect width="252" height="42" fill="white"></rect></clipPath></defs></svg>