<svg xmlns="http://www.w3.org/2000/svg" width="33" height="33" viewBox="0 0 33 33" fill="none"><path d="M22.6184 23.5108C23.8323 25.6173 25.0326 27.6998 26.2321 29.7802C20.9207 33.8465 12.6571 34.3379 6.5398 29.6552C-0.499934 24.2621 -1.65698 15.06 2.11199 8.43592C6.44684 0.816818 14.5588 -0.868194 19.7817 0.367361C19.6405 0.674219 16.5123 7.16382 16.5123 7.16382C16.5123 7.16382 16.265 7.18006 16.1251 7.18277C14.5813 7.2482 13.4315 7.60741 12.1991 8.24459C10.847 8.95013 9.68827 9.97612 8.82421 11.2329C7.96015 12.4896 7.41706 13.9389 7.24242 15.4539C7.0602 16.9905 7.27266 18.5481 7.85975 19.9797C8.35614 21.1899 9.05831 22.2648 9.99965 23.1723C11.4437 24.5658 13.1621 25.4286 15.154 25.7143C17.0403 25.985 18.8544 25.717 20.5543 24.8628C21.1919 24.5428 21.7343 24.1895 22.3684 23.7048C22.4491 23.6525 22.5209 23.5861 22.6184 23.5108Z" fill="#FF492C"></path><path d="M22.6299 5.03677C22.3217 4.73352 22.0361 4.45374 21.7518 4.17215C21.5821 4.00428 21.4187 3.82964 21.245 3.66584C21.1827 3.60672 21.1096 3.52595 21.1096 3.52595C21.1096 3.52595 21.1687 3.40049 21.194 3.34905C21.5266 2.68163 22.0478 2.19382 22.666 1.80573C23.3497 1.37333 24.1462 1.15332 24.9548 1.17352C25.9896 1.19382 26.9517 1.45149 27.7635 2.14553C28.3628 2.65772 28.6701 3.30753 28.7243 4.08325C28.8145 5.39191 28.273 6.39417 27.1976 7.09362C26.5659 7.50517 25.8844 7.82331 25.2012 8.20012C24.8244 8.40815 24.5022 8.59091 24.134 8.96726C23.81 9.34497 23.7942 9.70101 23.7942 9.70101L28.6891 9.6947V11.8747H21.1335V11.664C21.1046 10.5927 21.2296 9.58459 21.7202 8.61167C22.1714 7.71907 22.8727 7.06564 23.7152 6.56249C24.3641 6.17485 25.0473 5.84498 25.6976 5.45915C26.0988 5.22134 26.3822 4.87251 26.3799 4.36665C26.3799 3.93253 26.064 3.5467 25.6128 3.42622C24.5487 3.13921 23.4657 3.59724 22.9025 4.57107C22.8204 4.71322 22.7364 4.85446 22.6299 5.03677ZM32.0979 21.1938L27.9729 14.0701H19.81L15.6583 21.2673H23.8813L27.9391 28.3571L32.0979 21.1938Z" fill="#FF492C"></path></svg>