<svg xmlns="http://www.w3.org/2000/svg" width="155" height="34" viewBox="0 0 155 34" fill="none"><path d="M88.3433 13.042H82.5959V13.6517C84.3936 13.6517 84.6827 14.037 84.6827 16.3165V20.4267C84.6827 22.7062 84.3942 23.1239 82.5959 23.1239C81.2159 22.9311 80.2842 22.1927 79 20.7798L77.5232 19.1746C79.5134 18.8209 80.573 17.5691 80.573 16.1561C80.573 14.3906 79.0643 13.042 76.2386 13.042H70.5878V13.6517C72.3856 13.6517 72.6746 14.037 72.6746 16.3165V20.4267C72.6746 22.7062 72.3858 23.1239 70.5878 23.1239V23.7339H76.977V23.1239C75.1796 23.1239 74.8903 22.7062 74.8903 20.4267V19.2714H75.4362L79.0002 23.7339H88.3435C92.9347 23.7339 94.9258 21.294 94.9258 18.3718C94.9252 15.4499 92.9347 13.042 88.3433 13.042ZM74.8906 18.275V14.0053H76.2067C77.6513 14.0053 78.2938 15.0006 78.2938 16.1564C78.2938 17.2803 77.6513 18.2753 76.2067 18.2753L74.8906 18.275ZM88.4398 22.7383H88.2148C87.0592 22.7383 86.8986 22.4499 86.8986 20.9728V14.0053H88.4398C91.7789 14.0053 92.3883 16.4452 92.3883 18.3397C92.3886 20.298 91.7786 22.7383 88.4398 22.7383ZM52.7048 19.4636L54.92 12.913C55.5624 11.0188 55.2736 10.4735 53.2185 10.4735V9.83105H59.2546V10.4735C57.2322 10.4735 56.7504 10.9547 55.948 13.2986L52.2874 24.2795H51.8702L48.5949 14.2297L45.256 24.2795H44.8383L41.2745 13.2988C40.504 10.955 39.9903 10.4737 38.1279 10.4737V9.83132H45.2558V10.4737C43.361 10.4737 42.8473 10.9231 43.5219 12.9133L45.673 19.4639L48.9155 9.83132H49.5261L52.7048 19.4636ZM63.6209 24.1508C60.0893 24.1508 57.1995 21.5503 57.1995 18.3713C57.1995 15.2247 60.0893 12.624 63.6209 12.624C67.1525 12.624 70.0422 15.2247 70.0422 18.3713C70.0422 21.5503 67.1528 24.1508 63.6209 24.1508ZM63.6209 13.62C60.6673 13.62 59.6394 16.2843 59.6394 18.3716C59.6394 20.491 60.6673 23.1236 63.6209 23.1236C66.6071 23.1236 67.6346 20.491 67.6346 18.3716C67.6346 16.2843 66.6071 13.62 63.6209 13.62Z" fill="#58AEFF"></path><path d="M107.278 23.0898V23.7319H99.9258V23.0898C102.077 23.0898 102.462 22.5439 102.462 19.3327V14.1962C102.462 10.9849 102.077 10.4718 99.9258 10.4718V9.8291H106.572C109.878 9.8291 111.709 11.5308 111.709 13.8109C111.709 16.0263 109.879 17.7599 106.572 17.7599H104.741V19.3327C104.742 22.5442 105.127 23.0898 107.278 23.0898ZM106.572 10.9849H104.741V16.5719H106.572C108.37 16.5719 109.204 15.3198 109.204 13.8109C109.205 12.2698 108.37 10.9849 106.572 10.9849ZM133.766 20.714L133.606 21.2918C133.317 22.3514 132.963 22.7367 130.684 22.7367H130.234C128.565 22.7367 128.276 22.3514 128.276 20.0721V18.5954C130.78 18.5954 130.973 18.8198 130.973 20.4896H131.583V15.7051H130.973C130.973 17.3746 130.78 17.5993 128.276 17.5993V14.0036H130.041C132.321 14.0036 132.674 14.3889 132.963 15.4485L133.124 16.0585H133.638L133.413 13.0406H123.973V13.6503C125.771 13.6503 126.06 14.0356 126.06 16.3151V20.425C126.06 22.5104 125.815 23.0357 124.398 23.1109C123.05 22.9048 122.125 22.1702 120.86 20.7781L119.383 19.1729C121.373 18.8192 122.433 17.5674 122.433 16.1545C122.433 14.3889 120.924 13.0403 118.099 13.0403H112.448V13.65C114.246 13.65 114.535 14.0353 114.535 16.3148V20.425C114.535 22.7045 114.246 23.1222 112.448 23.1222V23.7322H118.837V23.1222C117.04 23.1222 116.75 22.7045 116.75 20.425V19.2697H117.296L120.86 23.7322H134.056L134.249 20.7146L133.766 20.714ZM116.75 18.2734V14.0036H118.066C119.511 14.0036 120.153 14.9989 120.153 16.1547C120.153 17.2787 119.511 18.2736 118.066 18.2736L116.75 18.2734ZM140.284 24.1491C139 24.1491 137.876 23.4751 137.394 23.0573C137.233 23.2182 136.945 23.6997 136.881 24.1491H136.271V19.7185H136.913C137.17 21.8377 138.646 23.0898 140.541 23.0898C141.568 23.0898 142.403 22.5117 142.403 21.5489C142.403 20.7143 141.665 20.0719 140.348 19.4619L138.518 18.5951C137.233 17.9846 136.271 16.9247 136.271 15.5126C136.271 13.9715 137.716 12.6553 139.706 12.6553C140.766 12.6553 141.665 13.0409 142.211 13.4902C142.371 13.3615 142.532 13.0084 142.628 12.6229H143.238V16.4119H142.564C142.339 14.9026 141.504 13.6505 139.803 13.6505C138.904 13.6505 138.069 14.164 138.069 14.9673C138.069 15.8019 138.743 16.2513 140.284 16.9575L142.05 17.8243C143.591 18.5627 144.201 19.7512 144.201 20.7143C144.201 22.7367 142.435 24.1491 140.284 24.1491ZM150.173 24.1491C148.888 24.1491 147.764 23.4751 147.283 23.0573C147.123 23.2182 146.834 23.6997 146.77 24.1491H146.16V19.7185H146.802C147.059 21.8377 148.535 23.0898 150.43 23.0898C151.458 23.0898 152.292 22.5117 152.292 21.5489C152.292 20.7143 151.554 20.0719 150.237 19.4619L148.407 18.5951C147.123 17.9846 146.16 16.9247 146.16 15.5126C146.16 13.9715 147.604 12.6553 149.595 12.6553C150.655 12.6553 151.553 13.0409 152.1 13.4902C152.26 13.3615 152.421 13.0084 152.517 12.6229H153.127V16.4119H152.453C152.228 14.9026 151.393 13.6505 149.692 13.6505C148.793 13.6505 147.958 14.164 147.958 14.9673C147.958 15.8019 148.632 16.2513 150.173 16.9575L151.939 17.8243C153.48 18.5627 154.09 19.7512 154.09 20.7143C154.09 22.7367 152.324 24.1491 150.173 24.1491Z" fill="white"></path><path d="M2.3584 16.5636C2.3584 22.1881 5.62694 27.0483 10.3666 29.3519L3.5886 10.7809C2.77607 12.6004 2.35687 14.5709 2.3584 16.5636ZM26.1599 15.8465C26.1599 14.0905 25.5291 12.8743 24.9881 11.9278C24.2678 10.7573 23.593 9.76615 23.593 8.59571C23.593 7.28954 24.5833 6.07368 25.9787 6.07368C26.0417 6.07368 26.1015 6.08152 26.1631 6.08503C23.6349 3.76903 20.2668 2.35498 16.5676 2.35498C11.6035 2.35498 7.2362 4.90189 4.69551 8.75955C5.02888 8.76956 5.34332 8.77632 5.60991 8.77632C7.09615 8.77632 9.39675 8.59598 9.39675 8.59598C10.1627 8.55083 10.253 9.67584 9.48814 9.76642C9.48814 9.76642 8.71812 9.85699 7.86158 9.90188L13.036 25.2928L16.1458 15.9669L13.9317 9.90161C13.1666 9.85672 12.4417 9.76615 12.4417 9.76615C11.676 9.72127 11.7658 8.55056 12.5315 8.59571C12.5315 8.59571 14.878 8.77605 16.2742 8.77605C17.7602 8.77605 20.0611 8.59571 20.0611 8.59571C20.8276 8.55056 20.9176 9.67557 20.1522 9.76615C20.1522 9.76615 19.3808 9.85672 18.5259 9.90161L23.6608 25.176L25.0779 20.4399C25.6924 18.4746 26.1599 17.063 26.1599 15.8465Z" fill="#58AEFF"></path><path d="M16.814 17.8077L12.5508 30.1956C13.8542 30.5798 15.206 30.7748 16.5648 30.7748C18.2194 30.7748 19.8063 30.4885 21.2833 29.9693C21.2437 29.9073 21.2098 29.8418 21.1822 29.7736L16.814 17.8077ZM29.0327 9.74768C29.0938 10.2003 29.1285 10.6864 29.1285 11.2088C29.1285 12.6507 28.8592 14.2715 28.048 16.2983L23.7077 28.847C27.932 26.3837 30.7734 21.8071 30.7734 16.5648C30.7772 14.182 30.1784 11.837 29.0327 9.74768Z" fill="#58AEFF"></path><path d="M16.5636 0C7.43066 0 0 7.4301 0 16.563C0 25.697 7.43039 33.1271 16.5636 33.1271C25.6963 33.1271 33.128 25.6972 33.128 16.563C33.1277 7.4301 25.6963 0 16.5636 0ZM16.5636 32.3676C7.84947 32.3676 0.759478 25.2776 0.759478 16.563C0.759478 7.84917 7.8492 0.759746 16.5636 0.759746C25.2774 0.759746 32.3669 7.84917 32.3669 16.563C32.3669 25.2776 25.2772 32.3676 16.5636 32.3676Z" fill="#58AEFF"></path></svg>