<svg width="40" height="43" xmlns="http://www.w3.org/2000/svg"><path d="M16.382 37.103c-2.526 1.436-5.371 2.398-7.603 1.38 2.105-1.034 2.501-2.207 2.709-3.185l.03-.155a21.387 21.387 0 0 1-2.183-1.614 16.829 16.829 0 0 1-6.054-12.957C3.281 11.282 10.766 3.75 20 3.75c4.94 0 9.38 2.156 12.441 5.584a16.819 16.819 0 0 1 4.278 11.238c0 9.292-7.485 16.823-16.719 16.823-1.303 0-2.487-.08-3.618-.292Zm-4.1-10.115c2.58 1.742 5.204 2.621 7.863 2.621 2.657 0 5.312-.878 7.955-2.616a.739.739 0 0 0 .209-1.037.77.77 0 0 0-1.056-.205c-2.404 1.582-4.77 2.364-7.108 2.364-2.335 0-4.664-.78-7-2.358a.77.77 0 0 0-1.058.192.739.739 0 0 0 .196 1.039Z" fill="#FEFEFE" fill-rule="evenodd"/></svg>