<svg xmlns="http://www.w3.org/2000/svg" width="467" height="104" viewBox="0 0 467 104" fill="none"><path d="M92.5303 62.8199V25.3799C92.5303 24.4499 93.0903 23.8899 94.0203 23.8899H99.0603C99.9903 23.8899 100.55 24.4499 100.55 25.3799V56.9699H118.27C119.2 56.9699 119.76 57.5299 119.76 58.4599V62.8099C119.76 63.7399 119.2 64.2999 118.27 64.2999H94.0203C93.0903 64.2999 92.5303 63.7399 92.5303 62.8099V62.8199Z" fill="white"></path><path d="M123.5 50.0098C123.5 41.3698 129.22 35.2698 137.06 35.2698C140.67 35.2698 143.34 36.5798 145.27 38.7498V37.1998C145.27 36.2698 145.83 35.7098 146.76 35.7098H151.55C152.48 35.7098 153.04 36.2698 153.04 37.1998V62.8198C153.04 63.7498 152.48 64.3098 151.55 64.3098H146.76C145.83 64.3098 145.27 63.7498 145.27 62.8198V61.3298C143.34 63.5098 140.67 64.8098 137.06 64.8098C129.22 64.8098 123.5 58.5298 123.5 50.0098ZM145.26 50.0098C145.26 45.7198 142.46 42.5498 138.17 42.5498C133.88 42.5498 131.02 45.7198 131.02 50.0098C131.02 54.2998 133.88 57.4698 138.17 57.4698C142.46 57.4698 145.26 54.2998 145.26 50.0098Z" fill="white"></path><path d="M159.881 53.24V37.2C159.881 36.27 160.441 35.71 161.371 35.71H166.161C167.091 35.71 167.651 36.27 167.651 37.2V52C167.651 57.04 171.191 58.22 173.431 58.22C175.671 58.22 179.031 57.04 179.031 52V37.2C179.031 36.27 179.591 35.71 180.521 35.71H185.311C186.241 35.71 186.801 36.27 186.801 37.2V62.82C186.801 63.75 186.241 64.31 185.311 64.31H180.521C179.591 64.31 179.031 63.81 179.031 63V61.69C176.851 63.99 173.871 64.8 171.071 64.8C165.911 64.8 159.881 62 159.881 53.23V53.24Z" fill="white"></path><path d="M193.65 62.8198V37.1998C193.65 36.2698 194.21 35.7098 195.14 35.7098H199.93C200.86 35.7098 201.42 36.2098 201.42 37.0798V38.4498C203.6 36.0898 206.64 35.2798 209.44 35.2798C214.6 35.2798 220.57 38.0798 220.57 46.8498V62.8298C220.57 63.7598 220.01 64.3198 219.08 64.3198H214.29C213.36 64.3198 212.8 63.7598 212.8 62.8298V48.0298C212.8 42.9898 209.25 41.8098 207.08 41.8098C204.91 41.8098 201.42 42.9898 201.42 48.0298V62.8298C201.42 63.7598 200.86 64.3198 199.93 64.3198H195.14C194.21 64.3198 193.65 63.7598 193.65 62.8298V62.8198Z" fill="white"></path><path d="M226.359 50.01C226.359 41.37 232.329 35.21 240.969 35.21C245.449 35.21 249.179 36.95 251.669 39.81C252.289 40.56 252.169 41.3 251.419 41.92L248.189 44.41C247.439 44.97 246.819 44.91 246.079 44.29C245.019 43.36 243.469 42.55 241.169 42.55C236.879 42.55 233.959 45.72 233.959 50.01C233.959 54.3 236.879 57.47 241.169 57.47C243.529 57.47 245.029 56.72 246.079 55.85C246.829 55.23 247.449 55.17 248.189 55.73L251.419 58.16C252.229 58.78 252.349 59.4 251.789 60.09C249.239 63.07 245.509 64.88 240.969 64.88C232.329 64.88 226.359 58.66 226.359 50.02V50.01Z" fill="white"></path><path d="M257.77 62.8199V25.3799C257.77 24.4499 258.33 23.8899 259.26 23.8899H264.05C264.98 23.8899 265.54 24.4499 265.54 25.3799V38.4399C267.72 36.0799 270.76 35.2699 273.56 35.2699C278.72 35.2699 284.69 38.0699 284.69 46.8399V62.8199C284.69 63.7499 284.13 64.3099 283.2 64.3099H278.41C277.48 64.3099 276.92 63.7499 276.92 62.8199V48.0199C276.92 42.9799 273.38 41.7999 271.2 41.7999C269.02 41.7999 265.54 42.9799 265.54 48.0199V62.8199C265.54 63.7499 264.98 64.3099 264.05 64.3099H259.26C258.33 64.3099 257.77 63.7499 257.77 62.8199Z" fill="white"></path><path d="M311.751 64.8099C299.751 64.8099 291.541 56.0999 291.541 44.0999C291.541 32.0999 299.751 23.3899 311.751 23.3899C318.531 23.3899 324.001 26.1899 327.551 30.7299C327.921 31.2299 327.801 31.7199 327.301 32.0399L325.871 33.0299C325.371 33.3999 324.941 33.2799 324.561 32.7799C321.571 29.1099 317.101 26.9999 311.751 26.9999C301.801 26.9999 295.151 34.2099 295.151 44.0999C295.151 53.9899 301.801 61.1999 311.751 61.1999C320.391 61.1999 326.361 55.5399 327.231 46.9599H312.551C311.991 46.9599 311.621 46.5899 311.621 46.0299V44.5399C311.621 43.9799 311.991 43.6099 312.551 43.6099H330.211C330.771 43.6099 331.141 43.9799 331.141 44.5399V45.0399C330.771 56.5399 323.431 64.8199 311.741 64.8199L311.751 64.8099Z" fill="white"></path><path d="M360.631 35.7H362.181C362.741 35.7 363.111 36.07 363.111 36.63V63.3699C363.111 63.9299 362.741 64.3 362.181 64.3H360.631C360.071 64.3 359.701 63.9299 359.701 63.3699V60.07C357.591 63.3 353.921 64.8 350.121 64.8C344.211 64.8 338.621 61.2599 338.621 53.4199V36.63C338.621 36.07 338.991 35.7 339.551 35.7H341.101C341.661 35.7 342.031 36.07 342.031 36.63V52.99C342.031 58.65 345.951 61.82 350.861 61.82C355.771 61.82 359.691 58.65 359.691 52.99V36.63C359.691 36.07 360.061 35.7 360.621 35.7H360.631Z" fill="white"></path><path d="M396.881 35.7H398.431C398.991 35.7 399.361 36.07 399.361 36.63V63.37C399.361 63.93 398.991 64.3 398.431 64.3H396.881C396.321 64.3 395.951 63.93 395.951 63.37V58.33C393.711 62.25 389.731 64.8 384.511 64.8C376.241 64.8 370.461 58.52 370.461 50C370.461 41.48 376.241 35.26 384.511 35.26C389.731 35.26 393.711 37.75 395.951 41.67V36.63C395.951 36.07 396.321 35.7 396.881 35.7ZM395.951 50.01C395.951 43.29 391.601 38.51 384.881 38.51C378.161 38.51 373.751 43.3 373.751 50.01C373.751 56.72 378.231 61.51 384.881 61.51C391.531 61.51 395.951 56.72 395.951 50.01Z" fill="white"></path><path d="M420.021 35.3298C420.641 35.2698 420.951 35.5798 420.951 36.1998V37.5698C420.951 38.1298 420.641 38.4998 420.081 38.5598C415.351 38.9998 410.881 41.9198 410.881 48.1398V63.3798C410.881 63.9398 410.511 64.3098 409.951 64.3098H408.401C407.841 64.3098 407.471 63.9398 407.471 63.3798V36.6398C407.471 36.0798 407.841 35.7098 408.401 35.7098H409.951C410.511 35.7098 410.881 36.0798 410.881 36.6398V40.9898C412.811 37.5098 416.231 35.6398 420.021 35.3298Z" fill="white"></path><path d="M450.371 23.8899H451.921C452.481 23.8899 452.851 24.2599 452.851 24.8199V63.3799C452.851 63.9399 452.481 64.3099 451.921 64.3099H450.371C449.811 64.3099 449.441 63.9399 449.441 63.3799V58.3399C447.201 62.2599 443.221 64.8099 438.001 64.8099C429.731 64.8099 423.951 58.5299 423.951 50.0099C423.951 41.4899 429.731 35.2699 438.001 35.2699C443.221 35.2699 447.201 37.7599 449.441 41.6799V24.8299C449.441 24.2699 449.811 23.8999 450.371 23.8999V23.8899ZM449.431 50.0099C449.431 43.2899 445.081 38.5099 438.361 38.5099C431.641 38.5099 427.231 43.2999 427.231 50.0099C427.231 56.7199 431.711 61.5099 438.361 61.5099C445.011 61.5099 449.431 56.7199 449.431 50.0099Z" fill="white"></path><path d="M133.009 92.18C133.009 93.85 131.709 94.96 130.169 94.96H125.629C125.399 94.96 125.279 94.84 125.279 94.61V85.34C125.279 85.11 125.399 84.99 125.629 84.99H129.859C131.389 84.99 132.639 85.97 132.639 87.66C132.639 88.69 132.179 89.39 131.459 89.79C132.369 90.17 133.009 91.02 133.009 92.18ZM126.429 89.34H129.699C130.759 89.34 131.459 88.7 131.459 87.7C131.459 86.7 130.749 86.06 129.699 86.06H126.429V89.34ZM131.829 92.1C131.829 91.1 131.109 90.32 130.019 90.32H126.429V93.88H130.019C131.129 93.88 131.829 93.08 131.829 92.1Z" fill="white"></path><path d="M140.27 87.8999H140.67C140.9 87.8999 141.02 88.0199 141.02 88.2499V94.5999C141.02 94.8299 140.9 94.9499 140.67 94.9499H140.27C140.04 94.9499 139.92 94.8299 139.92 94.5999V94.0199C139.38 94.7599 138.52 95.0799 137.65 95.0799C136.24 95.0799 134.84 94.2499 134.84 92.2599V88.2599C134.84 88.0299 134.96 87.9099 135.19 87.9099H135.59C135.82 87.9099 135.94 88.0299 135.94 88.2599V92.1299C135.94 93.4799 136.89 94.1399 137.93 94.1399C138.97 94.1399 139.91 93.4799 139.91 92.1299V88.2599C139.91 88.0299 140.03 87.9099 140.26 87.9099L140.27 87.8999Z" fill="white"></path><path d="M143.26 85.71C143.26 85.3 143.6 85.05 143.94 85.05C144.28 85.05 144.62 85.3 144.62 85.71C144.62 86.12 144.28 86.4 143.94 86.4C143.6 86.4 143.26 86.12 143.26 85.71ZM144.13 94.96H143.73C143.5 94.96 143.38 94.84 143.38 94.61V88.26C143.38 88.03 143.5 87.91 143.73 87.91H144.14C144.37 87.91 144.49 88.03 144.49 88.26V94.61C144.48 94.84 144.35 94.96 144.12 94.96H144.13Z" fill="white"></path><path d="M147.6 94.96H147.2C146.97 94.96 146.85 94.84 146.85 94.61V85.34C146.85 85.11 146.97 84.99 147.2 84.99H147.6C147.83 84.99 147.95 85.11 147.95 85.34V94.61C147.95 94.84 147.83 94.96 147.6 94.96Z" fill="white"></path><path d="M156.389 84.98H156.799C157.029 84.98 157.149 85.1 157.149 85.33V94.6C157.149 94.83 157.029 94.95 156.799 94.95H156.389C156.159 94.95 156.039 94.83 156.039 94.6V93.68C155.499 94.52 154.609 95.08 153.419 95.08C151.409 95.08 149.979 93.53 149.979 91.43C149.979 89.33 151.409 87.79 153.419 87.79C154.619 87.79 155.509 88.33 156.039 89.17V85.33C156.039 85.1 156.159 84.98 156.389 84.98ZM156.039 91.43C156.039 89.93 155.069 88.85 153.549 88.85C152.029 88.85 151.049 89.92 151.049 91.43C151.049 92.94 152.049 94.02 153.549 94.02C155.049 94.02 156.039 92.93 156.039 91.43Z" fill="white"></path><path d="M167.92 87.8999H168.33C168.59 87.8999 168.7 88.0699 168.61 88.3099L164.96 97.4999C164.88 97.6999 164.76 97.7799 164.56 97.7799H164.21C163.95 97.7799 163.83 97.6099 163.92 97.3699L164.87 94.9499L162.26 88.3199C162.17 88.0699 162.29 87.9099 162.55 87.9099H162.96C163.16 87.9099 163.28 87.9899 163.36 88.1899L165.43 93.4399L167.52 88.1899C167.6 87.9899 167.72 87.9099 167.92 87.9099V87.8999Z" fill="white"></path><path d="M169.879 91.43C169.879 89.31 171.349 87.78 173.469 87.78C175.589 87.78 177.059 89.31 177.059 91.43C177.059 93.55 175.589 95.1 173.469 95.1C171.349 95.1 169.879 93.54 169.879 91.43ZM175.949 91.43C175.949 89.94 174.969 88.85 173.479 88.85C171.989 88.85 170.989 89.94 170.989 91.43C170.989 92.92 171.989 94.02 173.479 94.02C174.969 94.02 175.949 92.91 175.949 91.43Z" fill="white"></path><path d="M184.51 87.8999H184.91C185.14 87.8999 185.26 88.0199 185.26 88.2499V94.5999C185.26 94.8299 185.14 94.9499 184.91 94.9499H184.51C184.28 94.9499 184.16 94.8299 184.16 94.5999V94.0199C183.62 94.7599 182.76 95.0799 181.89 95.0799C180.48 95.0799 179.08 94.2499 179.08 92.2599V88.2599C179.08 88.0299 179.2 87.9099 179.43 87.9099H179.83C180.06 87.9099 180.18 88.0299 180.18 88.2599V92.1299C180.18 93.4799 181.13 94.1399 182.17 94.1399C183.21 94.1399 184.15 93.4799 184.15 92.1299V88.2599C184.15 88.0299 184.27 87.9099 184.5 87.9099L184.51 87.8999Z" fill="white"></path><path d="M190.72 87.8199C190.95 87.7899 191.09 87.9299 191.09 88.1599V88.5099C191.09 88.7299 190.97 88.8499 190.75 88.8599C189.74 88.9799 188.6 89.5999 188.6 91.1499V94.5999C188.6 94.8299 188.48 94.9499 188.25 94.9499H187.85C187.62 94.9499 187.5 94.8299 187.5 94.5999V88.2499C187.5 88.0199 187.62 87.8999 187.85 87.8999H188.25C188.48 87.8999 188.6 88.0199 188.6 88.2499V89.1999C189.08 88.3599 189.86 87.9099 190.72 87.8199Z" fill="white"></path><path d="M202.449 87.9H202.859C203.089 87.9 203.209 88.02 203.209 88.25V94.6C203.209 94.83 203.089 94.95 202.859 94.95H202.449C202.219 94.95 202.099 94.83 202.099 94.6V93.68C201.559 94.52 200.669 95.08 199.479 95.08C197.469 95.08 196.039 93.53 196.039 91.43C196.039 89.33 197.469 87.79 199.479 87.79C200.679 87.79 201.569 88.33 202.099 89.17V88.25C202.099 88.02 202.219 87.9 202.449 87.9ZM202.089 91.43C202.089 89.93 201.119 88.85 199.599 88.85C198.079 88.85 197.099 89.92 197.099 91.43C197.099 92.94 198.099 94.02 199.599 94.02C201.099 94.02 202.089 92.93 202.089 91.43Z" fill="white"></path><path d="M210.869 87.8999H211.269C211.499 87.8999 211.619 88.0199 211.619 88.2499V94.5999C211.619 94.8299 211.499 94.9499 211.269 94.9499H210.869C210.639 94.9499 210.519 94.8299 210.519 94.5999V94.0199C209.979 94.7599 209.119 95.0799 208.249 95.0799C206.839 95.0799 205.439 94.2499 205.439 92.2599V88.2599C205.439 88.0299 205.559 87.9099 205.789 87.9099H206.189C206.419 87.9099 206.539 88.0299 206.539 88.2599V92.1299C206.539 93.4799 207.489 94.1399 208.529 94.1399C209.569 94.1399 210.509 93.4799 210.509 92.1299V88.2599C210.509 88.0299 210.629 87.9099 210.859 87.9099L210.869 87.8999Z" fill="white"></path><path d="M220.058 84.98H220.468C220.698 84.98 220.818 85.1 220.818 85.33V94.6C220.818 94.83 220.698 94.95 220.468 94.95H220.058C219.828 94.95 219.708 94.83 219.708 94.6V93.68C219.168 94.52 218.278 95.08 217.088 95.08C215.078 95.08 213.648 93.53 213.648 91.43C213.648 89.33 215.078 87.79 217.088 87.79C218.288 87.79 219.178 88.33 219.708 89.17V85.33C219.708 85.1 219.828 84.98 220.058 84.98ZM219.708 91.43C219.708 89.93 218.738 88.85 217.218 88.85C215.698 88.85 214.718 89.92 214.718 91.43C214.718 92.94 215.718 94.02 217.218 94.02C218.718 94.02 219.708 92.93 219.708 91.43Z" fill="white"></path><path d="M223.059 85.71C223.059 85.3 223.399 85.05 223.739 85.05C224.079 85.05 224.419 85.3 224.419 85.71C224.419 86.12 224.079 86.4 223.739 86.4C223.399 86.4 223.059 86.12 223.059 85.71ZM223.929 94.96H223.529C223.299 94.96 223.179 94.84 223.179 94.61V88.26C223.179 88.03 223.299 87.91 223.529 87.91H223.939C224.169 87.91 224.289 88.03 224.289 88.26V94.61C224.279 94.84 224.149 94.96 223.919 94.96H223.929Z" fill="white"></path><path d="M233.29 91.43C233.29 91.66 233.17 91.78 232.94 91.78H227.51C227.65 93.19 228.62 94.13 230.01 94.13C230.88 94.13 231.54 93.79 231.96 93.33C232.11 93.16 232.27 93.13 232.45 93.25L232.66 93.4C232.84 93.54 232.89 93.72 232.74 93.89C232.11 94.64 231.16 95.09 230.01 95.09C227.86 95.09 226.43 93.53 226.43 91.42C226.43 89.31 227.8 87.77 229.91 87.77C232.02 87.77 233.29 89.32 233.29 91.42V91.43ZM227.51 91.01H232.27C232.12 89.68 231.24 88.69 229.92 88.69C228.6 88.69 227.66 89.63 227.51 91.01Z" fill="white"></path><path d="M241.5 90.61V94.6C241.5 94.83 241.38 94.95 241.15 94.95H240.75C240.52 94.95 240.4 94.83 240.4 94.6V90.76C240.4 89.41 239.45 88.75 238.41 88.75C237.37 88.75 236.43 89.41 236.43 90.76V94.6C236.43 94.83 236.31 94.95 236.08 94.95H235.68C235.45 94.95 235.33 94.83 235.33 94.6V88.25C235.33 88.02 235.45 87.9 235.68 87.9H236.08C236.31 87.9 236.43 88.02 236.43 88.25V88.85C236.97 88.11 237.83 87.79 238.7 87.79C240.11 87.79 241.51 88.62 241.51 90.61H241.5Z" fill="white"></path><path d="M248.939 89.56C248.529 89.15 247.939 88.85 247.129 88.85C245.609 88.85 244.609 89.92 244.609 91.43C244.609 92.94 245.609 94.02 247.129 94.02C247.939 94.02 248.529 93.73 248.939 93.31C249.089 93.14 249.259 93.13 249.429 93.25L249.679 93.43C249.859 93.57 249.909 93.75 249.759 93.92C249.129 94.64 248.209 95.07 247.109 95.07C244.989 95.07 243.529 93.54 243.529 91.42C243.529 89.3 244.989 87.78 247.109 87.78C248.219 87.78 249.139 88.21 249.759 88.92C249.909 89.09 249.879 89.27 249.699 89.41L249.439 89.61C249.269 89.75 249.099 89.72 248.949 89.55L248.939 89.56Z" fill="white"></path><path d="M258.339 91.43C258.339 91.66 258.219 91.78 257.989 91.78H252.559C252.699 93.19 253.669 94.13 255.059 94.13C255.929 94.13 256.589 93.79 257.009 93.33C257.159 93.16 257.319 93.13 257.499 93.25L257.709 93.4C257.889 93.54 257.939 93.72 257.789 93.89C257.159 94.64 256.209 95.09 255.059 95.09C252.909 95.09 251.479 93.53 251.479 91.42C251.479 89.31 252.849 87.77 254.959 87.77C257.069 87.77 258.339 89.32 258.339 91.42V91.43ZM252.549 91.01H257.309C257.159 89.68 256.279 88.69 254.959 88.69C253.639 88.69 252.699 89.63 252.549 91.01Z" fill="white"></path><path d="M270.92 91.43C270.92 93.53 269.48 95.08 267.47 95.08C266.27 95.08 265.38 94.53 264.85 93.68V94.6C264.85 94.83 264.73 94.95 264.5 94.95H264.1C263.87 94.95 263.75 94.83 263.75 94.6V85.33C263.75 85.1 263.87 84.98 264.1 84.98H264.5C264.73 84.98 264.85 85.1 264.85 85.33V89.17C265.39 88.33 266.28 87.79 267.47 87.79C269.48 87.79 270.92 89.31 270.92 91.43ZM269.83 91.43C269.83 89.93 268.83 88.85 267.33 88.85C265.83 88.85 264.84 89.92 264.84 91.43C264.84 92.94 265.82 94.02 267.33 94.02C268.84 94.02 269.83 92.93 269.83 91.43Z" fill="white"></path><path d="M279.569 91.43C279.569 91.66 279.449 91.78 279.219 91.78H273.789C273.929 93.19 274.899 94.13 276.289 94.13C277.159 94.13 277.819 93.79 278.239 93.33C278.389 93.16 278.549 93.13 278.729 93.25L278.939 93.4C279.119 93.54 279.169 93.72 279.019 93.89C278.389 94.64 277.439 95.09 276.289 95.09C274.139 95.09 272.709 93.53 272.709 91.42C272.709 89.31 274.079 87.77 276.189 87.77C278.299 87.77 279.569 89.32 279.569 91.42V91.43ZM273.789 91.01H278.549C278.399 89.68 277.519 88.69 276.199 88.69C274.879 88.69 273.939 89.63 273.789 91.01Z" fill="white"></path><path d="M283.238 86.98V87.9H284.758C284.988 87.9 285.108 88.02 285.108 88.25V88.42C285.108 88.65 284.988 88.77 284.758 88.77H283.238V94.6C283.238 94.83 283.118 94.95 282.888 94.95H282.478C282.248 94.95 282.128 94.83 282.128 94.6V88.77H281.498C281.268 88.77 281.148 88.65 281.148 88.42V88.25C281.148 88.02 281.268 87.9 281.498 87.9H282.128V86.92C282.128 85.69 282.818 84.99 284.058 84.99H284.928C285.158 84.99 285.278 85.11 285.278 85.34V85.54C285.278 85.77 285.158 85.89 284.928 85.89H284.348C283.658 85.89 283.248 86.29 283.248 86.98H283.238Z" fill="white"></path><path d="M286.229 91.43C286.229 89.31 287.699 87.78 289.819 87.78C291.939 87.78 293.409 89.31 293.409 91.43C293.409 93.55 291.939 95.1 289.819 95.1C287.699 95.1 286.229 93.54 286.229 91.43ZM292.298 91.43C292.298 89.94 291.318 88.85 289.828 88.85C288.338 88.85 287.339 89.94 287.339 91.43C287.339 92.92 288.338 94.02 289.828 94.02C291.318 94.02 292.298 92.91 292.298 91.43Z" fill="white"></path><path d="M298.65 87.8199C298.88 87.7899 299.02 87.9299 299.02 88.1599V88.5099C299.02 88.7299 298.9 88.8499 298.68 88.8599C297.67 88.9799 296.53 89.5999 296.53 91.1499V94.5999C296.53 94.8299 296.41 94.9499 296.18 94.9499H295.78C295.55 94.9499 295.43 94.8299 295.43 94.5999V88.2499C295.43 88.0199 295.55 87.8999 295.78 87.8999H296.18C296.41 87.8999 296.53 88.0199 296.53 88.2499V89.1999C297.01 88.3599 297.79 87.9099 298.65 87.8199Z" fill="white"></path><path d="M306.899 91.43C306.899 91.66 306.779 91.78 306.549 91.78H301.119C301.259 93.19 302.229 94.13 303.619 94.13C304.489 94.13 305.149 93.79 305.569 93.33C305.719 93.16 305.879 93.13 306.059 93.25L306.269 93.4C306.449 93.54 306.499 93.72 306.349 93.89C305.719 94.64 304.769 95.09 303.619 95.09C301.469 95.09 300.039 93.53 300.039 91.42C300.039 89.31 301.409 87.77 303.519 87.77C305.629 87.77 306.899 89.32 306.899 91.42V91.43ZM301.119 91.01H305.879C305.729 89.68 304.849 88.69 303.529 88.69C302.209 88.69 301.269 89.63 301.119 91.01Z" fill="white"></path><path d="M317.459 87.8999H317.869C318.129 87.8999 318.239 88.0699 318.149 88.3099L314.499 97.4999C314.419 97.6999 314.299 97.7799 314.099 97.7799H313.749C313.489 97.7799 313.369 97.6099 313.459 97.3699L314.409 94.9499L311.799 88.3199C311.709 88.0699 311.829 87.9099 312.089 87.9099H312.499C312.699 87.9099 312.819 87.9899 312.899 88.1899L314.969 93.4399L317.059 88.1899C317.139 87.9899 317.259 87.9099 317.459 87.9099V87.8999Z" fill="white"></path><path d="M319.43 91.43C319.43 89.31 320.9 87.78 323.02 87.78C325.14 87.78 326.61 89.31 326.61 91.43C326.61 93.55 325.14 95.1 323.02 95.1C320.9 95.1 319.43 93.54 319.43 91.43ZM325.49 91.43C325.49 89.94 324.51 88.85 323.02 88.85C321.53 88.85 320.53 89.94 320.53 91.43C320.53 92.92 321.53 94.02 323.02 94.02C324.51 94.02 325.49 92.91 325.49 91.43Z" fill="white"></path><path d="M334.049 87.8999H334.449C334.679 87.8999 334.799 88.0199 334.799 88.2499V94.5999C334.799 94.8299 334.679 94.9499 334.449 94.9499H334.049C333.819 94.9499 333.699 94.8299 333.699 94.5999V94.0199C333.159 94.7599 332.299 95.0799 331.429 95.0799C330.019 95.0799 328.619 94.2499 328.619 92.2599V88.2599C328.619 88.0299 328.739 87.9099 328.969 87.9099H329.369C329.599 87.9099 329.719 88.0299 329.719 88.2599V92.1299C329.719 93.4799 330.669 94.1399 331.709 94.1399C332.749 94.1399 333.689 93.4799 333.689 92.1299V88.2599C333.689 88.0299 333.809 87.9099 334.039 87.9099L334.049 87.8999Z" fill="white"></path><path d="M347.059 91.43C347.059 91.66 346.939 91.78 346.709 91.78H341.279C341.419 93.19 342.389 94.13 343.779 94.13C344.649 94.13 345.309 93.79 345.729 93.33C345.879 93.16 346.039 93.13 346.219 93.25L346.429 93.4C346.609 93.54 346.659 93.72 346.509 93.89C345.879 94.64 344.929 95.09 343.779 95.09C341.629 95.09 340.199 93.53 340.199 91.42C340.199 89.31 341.569 87.77 343.679 87.77C345.789 87.77 347.059 89.32 347.059 91.42V91.43ZM341.279 91.01H346.039C345.889 89.68 345.009 88.69 343.689 88.69C342.369 88.69 341.429 89.63 341.279 91.01Z" fill="white"></path><path d="M350.729 94.6799L348.209 88.3099C348.119 88.0599 348.239 87.8999 348.499 87.8999H348.909C349.109 87.8999 349.229 87.9799 349.309 88.1799L351.379 93.4399L353.469 88.1799C353.549 87.9799 353.669 87.8999 353.869 87.8999H354.279C354.539 87.8999 354.649 88.0699 354.559 88.3099L352.029 94.6799C351.949 94.8799 351.829 94.9599 351.629 94.9599H351.119C350.919 94.9599 350.799 94.8799 350.719 94.6799H350.729Z" fill="white"></path><path d="M362.7 91.43C362.7 91.66 362.58 91.78 362.35 91.78H356.92C357.06 93.19 358.03 94.13 359.42 94.13C360.29 94.13 360.95 93.79 361.37 93.33C361.52 93.16 361.68 93.13 361.86 93.25L362.07 93.4C362.25 93.54 362.3 93.72 362.15 93.89C361.52 94.64 360.57 95.09 359.42 95.09C357.27 95.09 355.84 93.53 355.84 91.42C355.84 89.31 357.21 87.77 359.32 87.77C361.43 87.77 362.7 89.32 362.7 91.42V91.43ZM356.92 91.01H361.68C361.53 89.68 360.65 88.69 359.33 88.69C358.01 88.69 357.07 89.63 356.92 91.01Z" fill="white"></path><path d="M370.91 90.61V94.6C370.91 94.83 370.79 94.95 370.56 94.95H370.16C369.93 94.95 369.81 94.83 369.81 94.6V90.76C369.81 89.41 368.86 88.75 367.82 88.75C366.78 88.75 365.84 89.41 365.84 90.76V94.6C365.84 94.83 365.72 94.95 365.49 94.95H365.09C364.86 94.95 364.74 94.83 364.74 94.6V88.25C364.74 88.02 364.86 87.9 365.09 87.9H365.49C365.72 87.9 365.84 88.02 365.84 88.25V88.85C366.38 88.11 367.24 87.79 368.11 87.79C369.52 87.79 370.92 88.62 370.92 90.61H370.91Z" fill="white"></path><path d="M377.279 94.96H376.879C376.649 94.96 376.529 94.84 376.529 94.61V85.34C376.529 85.11 376.649 84.99 376.879 84.99H377.279C377.509 84.99 377.629 85.11 377.629 85.34V94.61C377.629 94.84 377.509 94.96 377.279 94.96Z" fill="white"></path><path d="M386.07 87.9H386.48C386.71 87.9 386.83 88.02 386.83 88.25V94.6C386.83 94.83 386.71 94.95 386.48 94.95H386.07C385.84 94.95 385.72 94.83 385.72 94.6V93.68C385.18 94.52 384.29 95.08 383.1 95.08C381.09 95.08 379.66 93.53 379.66 91.43C379.66 89.33 381.09 87.79 383.1 87.79C384.3 87.79 385.19 88.33 385.72 89.17V88.25C385.72 88.02 385.84 87.9 386.07 87.9ZM385.72 91.43C385.72 89.93 384.75 88.85 383.23 88.85C381.71 88.85 380.73 89.92 380.73 91.43C380.73 92.94 381.73 94.02 383.23 94.02C384.73 94.02 385.72 92.93 385.72 91.43Z" fill="white"></path><path d="M394.498 87.8999H394.898C395.128 87.8999 395.248 88.0199 395.248 88.2499V94.5999C395.248 94.8299 395.128 94.9499 394.898 94.9499H394.498C394.268 94.9499 394.148 94.8299 394.148 94.5999V94.0199C393.608 94.7599 392.748 95.0799 391.878 95.0799C390.468 95.0799 389.068 94.2499 389.068 92.2599V88.2599C389.068 88.0299 389.188 87.9099 389.418 87.9099H389.818C390.048 87.9099 390.168 88.0299 390.168 88.2599V92.1299C390.168 93.4799 391.118 94.1399 392.158 94.1399C393.198 94.1399 394.138 93.4799 394.138 92.1299V88.2599C394.138 88.0299 394.258 87.9099 394.488 87.9099L394.498 87.8999Z" fill="white"></path><path d="M403.67 90.61V94.6C403.67 94.83 403.55 94.95 403.32 94.95H402.92C402.69 94.95 402.57 94.83 402.57 94.6V90.76C402.57 89.41 401.62 88.75 400.58 88.75C399.54 88.75 398.6 89.41 398.6 90.76V94.6C398.6 94.83 398.48 94.95 398.25 94.95H397.85C397.62 94.95 397.5 94.83 397.5 94.6V88.25C397.5 88.02 397.62 87.9 397.85 87.9H398.25C398.48 87.9 398.6 88.02 398.6 88.25V88.85C399.14 88.11 400 87.79 400.87 87.79C402.28 87.79 403.68 88.62 403.68 90.61H403.67Z" fill="white"></path><path d="M411.119 89.56C410.709 89.15 410.119 88.85 409.309 88.85C407.789 88.85 406.789 89.92 406.789 91.43C406.789 92.94 407.789 94.02 409.309 94.02C410.119 94.02 410.709 93.73 411.119 93.31C411.269 93.14 411.439 93.13 411.609 93.25L411.859 93.43C412.039 93.57 412.089 93.75 411.939 93.92C411.309 94.64 410.389 95.07 409.289 95.07C407.169 95.07 405.709 93.54 405.709 91.42C405.709 89.3 407.169 87.78 409.289 87.78C410.389 87.78 411.309 88.21 411.939 88.92C412.089 89.09 412.059 89.27 411.879 89.41L411.619 89.61C411.449 89.75 411.279 89.72 411.129 89.55L411.119 89.56Z" fill="white"></path><path d="M420.199 90.61V94.6C420.199 94.83 420.079 94.95 419.849 94.95H419.449C419.219 94.95 419.099 94.83 419.099 94.6V90.76C419.099 89.41 418.149 88.75 417.109 88.75C416.069 88.75 415.129 89.41 415.129 90.76V94.6C415.129 94.83 415.009 94.95 414.779 94.95H414.379C414.149 94.95 414.029 94.83 414.029 94.6V85.33C414.029 85.1 414.149 84.98 414.379 84.98H414.779C415.009 84.98 415.129 85.1 415.129 85.33V88.84C415.669 88.1 416.529 87.78 417.399 87.78C418.809 87.78 420.209 88.61 420.209 90.6L420.199 90.61Z" fill="white"></path><path d="M72.7798 8.75H19.8498C14.8738 8.75 10.8398 12.7839 10.8398 17.76V70.69C10.8398 75.6661 14.8738 79.7 19.8498 79.7H72.7798C77.7559 79.7 81.7898 75.6661 81.7898 70.69V17.76C81.7898 12.7839 77.7559 8.75 72.7798 8.75Z" fill="url(#paint0_linear_21_907)"></path><path d="M52.4901 27.9101C53.0401 28.0601 53.6001 28.2201 54.1301 28.4101C54.5101 28.5401 54.8801 28.6801 55.2501 28.8301C57.0601 29.5701 58.7901 30.5601 60.3801 31.7601L61.2701 32.4301L61.3301 33.5901C61.3401 33.8601 61.3501 34.1301 61.3601 34.4001V34.7901H67.5501L67.4001 29.1301L62.9501 25.9601C60.6601 24.3301 58.1601 23.0601 55.5401 22.1801C54.6101 21.8701 53.6401 21.6101 52.6801 21.4001C51.7401 21.2001 50.7801 21.0401 49.8201 20.9401L49.3701 20.8901V27.3201L49.7201 27.3701C50.6501 27.4901 51.5801 27.6701 52.4901 27.9101ZM49.3701 36.8901V43.3301H60.1901C59.9901 44.0201 59.7601 44.7001 59.5001 45.3801C59.4801 45.4701 59.4401 45.5501 59.4101 45.6401C58.9301 46.8801 58.3401 48.1001 57.7001 49.2701C57.3301 49.9201 56.9301 50.5701 56.5101 51.1901C56.3601 51.4001 56.2201 51.6201 56.0601 51.8201C53.9301 54.8401 51.1701 57.4101 48.0801 59.2901L46.9601 59.9801L45.8301 59.2901C42.5201 57.2801 39.6001 54.4801 37.4001 51.1901C36.9801 50.5801 36.5801 49.9301 36.2201 49.2701C35.5701 48.1101 34.9901 46.8901 34.5001 45.6201C34.1501 44.7201 33.8401 43.7901 33.5801 42.8301L33.5101 42.5801C33.0601 40.8501 32.7701 39.0701 32.6301 37.2701V37.1901C32.5801 36.5001 32.5601 35.8001 32.5601 35.1101C32.5601 34.8801 32.5601 34.6401 32.5601 34.4101C32.5601 34.0801 32.5801 33.7401 32.6001 33.4101L32.6601 32.2501L33.5601 31.5901C35.4701 30.1801 37.5501 29.1001 39.7501 28.3601C40.1401 28.2301 40.5201 28.1101 40.9001 28.0001V51.8301H52.7501C53.3101 51.1601 53.8301 50.4701 54.3201 49.7401C54.7001 49.1801 55.0601 48.5901 55.3901 48.0001C55.8601 47.1701 56.2901 46.2901 56.6601 45.4001H47.3501V20.8101H46.8301C44.9501 20.8101 43.0601 21.0001 41.2201 21.3801C37.5901 22.1401 34.1801 23.6101 31.0801 25.7501L26.5401 28.8801V29.0801C26.5401 29.0801 26.4201 32.4501 26.3601 34.4001C26.3401 35.1201 26.3301 35.6501 26.3301 35.7601C26.3301 36.2601 26.3301 36.7501 26.3601 37.2501V37.3301C26.4501 39.2401 26.6901 41.1601 27.0901 43.0501C27.1801 43.4501 27.2701 43.8401 27.3601 44.2401C27.5001 44.8001 27.6601 45.3501 27.8301 45.9201C28.4301 47.8901 29.2101 49.8001 30.1401 51.6201L30.3501 52.0201C31.6501 54.4701 33.2501 56.7401 35.0801 58.7701C36.9501 60.8501 39.0701 62.6501 41.3701 64.1501L46.9301 67.7701L52.4801 64.1501C54.7801 62.6601 56.9001 60.8501 58.7701 58.7701C60.6101 56.7401 62.2001 54.4701 63.5001 52.0201L63.7101 51.6201C64.6501 49.8001 65.4201 47.8801 66.0301 45.9001C66.2001 45.3501 66.3501 44.7901 66.4901 44.2401C66.5901 43.8401 66.6801 43.4501 66.7701 43.0401C67.1701 41.1701 67.4101 39.2501 67.5001 37.3401L67.5201 36.9201H49.3401L49.3701 36.8901Z" fill="white"></path><defs><linearGradient id="paint0_linear_21_907" x1="85.3898" y1="88.29" x2="19.7398" y2="14.25" gradientUnits="userSpaceOnUse"><stop stop-color="#EC1C24"></stop><stop offset="1" stop-color="#F89F1B"></stop></linearGradient></defs></svg>