<svg xmlns="http://www.w3.org/2000/svg" width="1034" height="212" viewBox="0 0 1034 212" fill="none"><path d="M179.703 18.4829H26.9084C19.9669 18.4829 14.332 24.1134 14.332 31.0495V183.725C14.332 190.662 19.9669 196.292 26.9084 196.292H179.703C186.645 196.292 192.28 190.662 192.28 183.725V31.0903C192.321 24.1134 186.686 18.4829 179.703 18.4829Z" fill="#0D3B54"></path><path d="M74.8867 70.7896H66.3936V79.2761H74.8867V70.7896Z" fill="#19BAC3"></path><path d="M63.168 60.5894H57.7373V66.0158H63.168V60.5894Z" fill="#0EA4E1"></path><path d="M64.4333 46.7578H61.9834V49.2058H64.4333V46.7578Z" fill="white"></path><path d="M72.7638 54.9585H69.0889V58.6306H72.7638V54.9585Z" fill="white"></path><path d="M72.5187 94.4946H68.8438V98.1667H72.5187V94.4946Z" fill="white"></path><path d="M92.8534 49.3691H89.791V52.4292H92.8534V49.3691Z" fill="white"></path><path d="M94.4052 81.8872H79.3789V96.9018H94.4052V81.8872Z" fill="#09D3C9"></path><path d="M88.729 57.7739H79.9092V66.5869H88.729V57.7739Z" fill="#0E7CB7"></path><path d="M64.5565 83.7642H59.085V89.2314H64.5565V83.7642Z" fill="#0AA5D2"></path><path d="M143.404 61.6908C135.197 53.6123 125.111 49.5322 113.188 49.5322H102.327V57.5699H94.9768V75.563H113.188C117.475 75.563 120.987 77.0726 123.764 80.0919C126.54 83.1111 127.929 86.7832 127.929 91.1897C127.929 95.5961 126.54 99.2682 123.764 102.287C120.987 105.307 117.475 106.816 113.188 106.816H94.9768H79.6238V122.973H67.1699V170.955H94.936V132.806H113.147C125.07 132.806 135.115 128.767 143.363 120.648C151.571 112.569 155.695 102.736 155.695 91.1489C155.695 79.6023 151.611 69.7693 143.404 61.6908Z" fill="white"></path><path d="M74.3156 106.694H63.25V117.751H74.3156V106.694Z" fill="white"></path><path d="M297.464 106.775C295.014 111.223 291.217 114.772 286.154 117.506C281.05 120.24 274.761 121.586 267.207 121.586H253.243V154.716H230.703V62.3843H267.166C274.557 62.3843 280.764 63.6491 285.868 66.2195C290.972 68.7492 294.769 72.258 297.301 76.7461C299.832 81.2342 301.139 86.3342 301.139 92.1279C301.139 97.4728 299.914 102.369 297.464 106.775ZM275.088 100.655C277.211 98.656 278.232 95.8 278.232 92.0871C278.232 88.3743 277.17 85.559 275.088 83.519C272.965 81.5198 269.78 80.4998 265.492 80.4998H253.243V103.634H265.492C269.78 103.715 272.965 102.695 275.088 100.655Z" fill="#F8F8F8"></path><path d="M333.192 81.3564H310.693V154.757H333.192V81.3564Z" fill="#F8F8F8"></path><path d="M495.419 123.422H444.46C444.828 127.991 446.298 131.459 448.87 133.867C451.443 136.274 454.627 137.498 458.425 137.498C464.06 137.498 467.939 135.131 470.144 130.399H494.112C492.887 135.213 490.683 139.579 487.457 143.414C484.272 147.29 480.229 150.309 475.411 152.472C470.593 154.675 465.203 155.777 459.201 155.777C452.014 155.777 445.603 154.226 439.969 151.166C434.334 148.106 429.965 143.7 426.821 138.028C423.676 132.316 422.084 125.666 422.084 118.036C422.084 110.406 423.636 103.756 426.739 98.0437C429.842 92.3316 434.211 87.9659 439.846 84.9059C445.481 81.8458 451.933 80.2954 459.201 80.2954C466.306 80.2954 472.635 81.805 478.147 84.7835C483.659 87.7619 487.988 92.0052 491.132 97.5541C494.235 103.062 495.787 109.509 495.787 116.894C495.827 118.974 495.664 121.137 495.419 123.422ZM472.757 110.937C472.757 107.061 471.45 104.001 468.796 101.716C466.183 99.4309 462.876 98.2885 458.915 98.2885C455.158 98.2885 451.973 99.3901 449.36 101.593C446.788 103.797 445.154 106.897 444.542 110.937H472.757Z" fill="#F8F8F8"></path><path d="M528.372 57.4062V154.757H505.873V57.4062H528.372Z" fill="#F8F8F8"></path><path d="M645.684 89.6389C643.152 84.294 639.436 80.1324 634.618 77.1947C629.8 74.2571 624.165 72.7882 617.754 72.7882C611.344 72.7882 605.586 74.2571 600.441 77.1947C595.296 80.1324 591.254 84.3348 588.314 89.8429C585.374 95.3102 583.904 101.675 583.904 108.856C583.904 116.037 585.374 122.361 588.314 127.787C591.254 133.214 595.296 137.416 600.441 140.354C605.586 143.292 611.344 144.761 617.754 144.761C626.697 144.761 634.087 142.068 639.885 136.723C645.684 131.378 649.073 124.156 650.012 115.017H613.426V105.266H662.792V114.486C662.098 122.035 659.73 128.93 655.688 135.213C651.645 141.496 646.337 146.433 639.763 150.065C633.189 153.696 625.839 155.532 617.795 155.532C609.261 155.532 601.503 153.533 594.48 149.534C587.457 145.536 581.903 139.987 577.82 132.888C573.737 125.788 571.695 117.751 571.695 108.815C571.695 99.8799 573.737 91.8421 577.82 84.6612C581.903 77.5211 587.457 71.9314 594.48 67.9738C601.503 63.9753 609.261 61.9761 617.795 61.9761C627.554 61.9761 636.17 64.3833 643.683 69.1978C651.196 74.0123 656.668 80.826 660.057 89.5981H645.684V89.6389Z" fill="#F8F8F8"></path><path d="M681.329 99.0231C684.31 93.4742 688.434 89.1493 693.62 86.0485C698.846 82.9884 704.645 81.438 711.055 81.438C717.384 81.438 722.856 82.7844 727.511 85.5181C732.166 88.2517 735.636 91.6381 737.923 95.759V82.6212H750.05V154.716H737.923V141.292C735.555 145.495 732.002 149.004 727.307 151.737C722.611 154.512 717.139 155.899 710.933 155.899C704.522 155.899 698.724 154.308 693.538 151.166C688.352 148.025 684.269 143.577 681.288 137.865C678.308 132.153 676.797 125.666 676.797 118.403C676.838 111.059 678.348 104.613 681.329 99.0231ZM734.656 104.368C732.451 100.329 729.512 97.2278 725.755 95.1062C722.039 92.9438 717.915 91.8829 713.464 91.8829C708.973 91.8829 704.89 92.9438 701.215 95.0246C697.54 97.1462 694.6 100.206 692.395 104.246C690.19 108.285 689.087 113.018 689.087 118.444C689.087 123.952 690.19 128.767 692.395 132.847C694.6 136.927 697.54 140.028 701.215 142.19C704.89 144.353 708.973 145.413 713.464 145.413C717.956 145.413 722.039 144.353 725.755 142.19C729.471 140.028 732.451 136.927 734.656 132.847C736.861 128.767 737.964 123.993 737.964 118.567C737.923 113.14 736.821 108.407 734.656 104.368Z" fill="#F8F8F8"></path><path d="M776.062 57.4062V154.757H764.098V57.4062H776.062Z" fill="#F8F8F8"></path><path d="M802.112 57.4062V154.757H790.148V57.4062H802.112Z" fill="#F8F8F8"></path><path d="M886.063 123.177H828.408C828.857 130.276 831.266 135.825 835.717 139.823C840.168 143.822 845.517 145.821 851.846 145.821C857.031 145.821 861.36 144.597 864.83 142.19C868.301 139.783 870.751 136.559 872.139 132.52H885.043C883.123 139.456 879.244 145.087 873.446 149.412C867.648 153.736 860.461 155.94 851.846 155.94C844.986 155.94 838.861 154.389 833.471 151.329C828.081 148.269 823.835 143.903 820.772 138.232C817.71 132.561 816.158 126.033 816.158 118.566C816.158 111.1 817.669 104.572 820.65 98.982C823.631 93.3515 827.836 89.0674 833.226 86.0074C838.616 82.9881 844.823 81.4785 851.846 81.4785C858.706 81.4785 864.749 82.9881 870.016 85.9666C875.284 88.945 879.326 93.0659 882.184 98.2476C885.043 103.47 886.472 109.345 886.472 115.955C886.472 118.199 886.349 120.606 886.063 123.177ZM871.078 101.675C869.077 98.37 866.3 95.8811 862.83 94.1675C859.359 92.4539 855.521 91.5971 851.315 91.5971C845.272 91.5971 840.086 93.5147 835.839 97.3908C831.593 101.267 829.143 106.612 828.53 113.425H874.099C874.099 108.856 873.079 104.939 871.078 101.675Z" fill="#F8F8F8"></path><path d="M921.547 84.7427C925.466 82.4578 930.203 81.3154 935.838 81.3154V93.678H932.694C919.26 93.678 912.563 100.941 912.563 115.506V154.716H900.6V82.6619H912.563V94.3716C914.605 90.2508 917.627 87.0275 921.547 84.7427Z" fill="#F8F8F8"></path><path d="M1020.57 82.6621L977.12 188.662H964.748L978.957 153.941L949.844 82.6621H963.155L985.817 141.089L1008.19 82.6621H1020.57Z" fill="#F8F8F8"></path><path d="M342.461 81.1113H367.369L418.205 154.267H392.848L342.461 81.1113Z" fill="#F8F8F8"></path><path d="M367.369 116.894L379.537 134.805L367.287 154.716H342.951L367.369 116.894Z" fill="#F8F8F8"></path><path d="M381.742 94.8612L393.992 112.365L414.694 81.397H390.48L381.742 94.8612Z" fill="#12CDC5"></path><path d="M322.004 73.6858C328.724 73.6858 334.172 68.2422 334.172 61.5272C334.172 54.8122 328.724 49.3687 322.004 49.3687C315.284 49.3687 309.836 54.8122 309.836 61.5272C309.836 68.2422 315.284 73.6858 322.004 73.6858Z" fill="#F8F8F8"></path></svg>