<svg xmlns="http://www.w3.org/2000/svg" width="512" height="128" viewBox="0 0 512 128" fill="none"><path d="M126.9 42C129.2 43.1 130.8 44.8 132.2 47.1C133.3 49.4 134.2 51.9 134.2 54.7C134.2 57.5 133.6 60 132.2 62.3C130.8 64.6 129.1 66.2 126.9 67.4C124.6 68.5 121.8 69.1 119 69.1H109.4C109.1 69.1 109.1 69.1 109.1 69.4V86.6C109.1 86.9 109.1 86.9 108.8 87.2C108.5 87.5 108.5 87.5 108.2 87.5H100C99.7 87.5 99.7 87.5 99.4 87.2C99.1 86.9 99.1 86.9 99.1 86.6V41.2C99.1 40.9 99.1 40.9 99.4 40.6C99.7 40.3 99.7 40.3 100 40.3H119.1C122.1 40.4 124.7 40.9 126.9 42ZM122.7 59.8C123.8 58.7 124.7 57 124.7 55C124.7 53 124.1 51.3 122.7 50.2C121.6 49.1 119.9 48.5 117.6 48.5H109.2C108.9 48.5 108.9 48.5 108.9 48.8V61.2C108.9 61.5 108.9 61.5 109.2 61.5H117.6C119.9 61.7 121.6 60.9 122.7 59.8Z" fill="white"></path><path d="M164.9 87.1L156.5 68.5C156.5 68.2 156.2 68.2 156.2 68.2H150C149.7 68.2 149.7 68.2 149.7 68.5V87.1C149.7 87.4 149.7 87.4 149.4 87.7C149.1 88 149.1 88 148.8 88H141C140.7 88 140.7 88 140.4 87.7C140.1 87.4 140.1 87.4 140.1 87.1V41.2C140.1 40.9 140.1 40.9 140.4 40.6C140.7 40.3 140.7 40.3 141 40.3H160.4C163.2 40.3 165.7 40.9 168 42C170.3 43.1 171.9 44.8 173.1 47.1C174.2 49.4 174.8 51.9 174.8 54.7C174.8 57.8 174 60.3 172.5 62.6C171.1 64.9 168.8 66.3 166 67.1C165.7 67.1 165.7 67.4 165.7 67.7L175 86.8C175 87.1 175 87.1 175 87.1C175 87.4 174.7 87.7 174.2 87.7H165.8C165.5 87.6 165.2 87.4 164.9 87.1ZM149.4 48.8V60.3C149.4 60.6 149.4 60.6 149.7 60.6H158.4C160.4 60.6 161.8 60 162.9 58.9C164 57.8 164.6 56.4 164.6 54.4C164.6 52.7 164 51 162.9 49.9C161.8 48.8 160.1 48.2 158.4 48.2H149.7C149.7 48.5 149.4 48.5 149.4 48.8Z" fill="white"></path><path d="M181.8 87.4C181.5 87.1 181.5 87.1 181.5 86.8V41.2C181.5 40.9 181.5 40.9 181.8 40.6C182.1 40.3 182.1 40.3 182.4 40.3H190.3C190.6 40.3 190.6 40.3 190.9 40.6C191.2 40.9 191.2 40.9 191.2 41.2V86.8C191.2 87.1 191.2 87.1 190.9 87.4C190.6 87.7 190.6 87.7 190.3 87.7H182.4C182.1 87.6 181.8 87.6 181.8 87.4Z" fill="white"></path><path d="M230.5 40.4H238.4C238.7 40.4 238.7 40.4 239 40.7C239.3 41 239.3 41 239.3 41.3V86.9C239.3 87.2 239.3 87.2 239 87.5C238.7 87.8 238.7 87.8 238.4 87.8H230.5C230.2 87.8 230.2 87.8 229.9 87.5C229.9 87.5 229.6 87.2 229.6 86.9V57C229.6 56.7 229.6 56.7 229.6 56.7C229.6 56.7 229.3 56.7 229.3 57L222.3 68.3C222 68.6 221.7 68.9 221.5 68.9H217.6C217.3 68.9 216.8 68.6 216.8 68.3L209.8 57L209.5 56.7C209.5 56.7 209.5 56.7 209.5 57V86.8C209.5 87.1 209.5 87.1 209.2 87.4C208.9 87.7 208.9 87.7 208.6 87.7H200.7C200.4 87.7 200.4 87.7 200.1 87.4C199.8 87.1 199.8 87.1 199.8 86.8V41.2C199.8 40.9 199.8 40.9 200.1 40.6C200.4 40.3 200.4 40.3 200.7 40.3H208.6C208.9 40.3 209.4 40.6 209.4 40.9L219.5 56.7C219.5 57 219.8 57 219.8 56.7L229.7 40.9C229.9 40.6 230.2 40.4 230.5 40.4Z" fill="white"></path><path d="M280.1 48.2C279.8 48.5 279.8 48.5 279.5 48.5H257.3C257 48.5 257 48.5 257 48.8V59.2C257 59.5 257 59.5 257.3 59.5H271.9C272.2 59.5 272.2 59.5 272.5 59.8C272.8 60.1 272.8 60.1 272.8 60.4V66.9C272.8 67.2 272.8 67.2 272.5 67.5C272.2 67.8 272.2 67.8 271.9 67.8H257.3C257 67.8 257 67.8 257 68.1V79.1C257 79.4 257 79.4 257.3 79.4H279.5C279.8 79.4 279.8 79.4 280.1 79.7C280.4 80 280.4 80 280.4 80.3V86.8C280.4 87.1 280.4 87.1 280.1 87.4C279.8 87.7 279.8 87.7 279.5 87.7H248.2C247.9 87.7 247.9 87.7 247.6 87.4C247.3 87.1 247.3 87.1 247.3 86.8V41.2C247.3 40.9 247.3 40.9 247.6 40.6C247.9 40.3 247.9 40.3 248.2 40.3H279.5C279.8 40.3 279.8 40.3 280.1 40.6C280.4 40.9 280.4 40.9 280.4 41.2V47.7C280.3 48 280.3 48.2 280.1 48.2Z" fill="white"></path><path d="M304.6 86.5C301.8 85.4 299.8 83.7 298.4 81.4C297 79.1 296.1 76.9 296.1 73.8V72.4C296.1 72.1 296.1 72.1 296.4 71.8C296.7 71.5 296.7 71.5 297 71.5H304.6C304.9 71.5 304.9 71.5 305.2 71.8C305.5 72.1 305.5 72.1 305.5 72.4V73.5C305.5 75.2 306.3 76.9 308 78C309.7 79.1 311.9 80 314.8 80C317.1 80 319 79.4 320.1 78.6C321.2 77.8 321.8 76.3 321.8 74.9C321.8 73.8 321.5 72.9 320.7 72.1C319.9 71.3 319 70.7 317.9 70.1C316.8 69.5 314.8 68.7 312 67.8C308.9 66.7 306.4 65.8 304.4 64.7C302.4 63.6 300.5 62.2 299.1 60.2C297.7 58.2 296.8 56 296.8 53.2C296.8 50.4 297.4 48.1 298.8 46.2C300.2 44.2 302.2 42.5 304.7 41.4C307.2 40.3 310 39.7 313.1 39.7C316.5 39.7 319.6 40.3 322.4 41.4C325.2 42.5 327.2 44.2 328.6 46.5C330 48.8 330.9 51.3 330.9 54.1V55.2C330.9 55.5 330.9 55.5 330.6 55.8C330.3 56.1 330.3 56.1 330 56.1H322C321.7 56.1 321.7 56.1 321.4 55.8C321.1 55.5 321.1 55.5 321.1 55.2V54.6C321.1 52.6 320.3 51.2 318.8 49.8C317.1 48.4 315.1 47.8 312.3 47.8C310 47.8 308.6 48.4 307.2 49.2C306.1 50 305.5 51.5 305.5 52.9C305.5 54 305.8 54.9 306.6 55.7C307.2 56.5 308.3 57.1 309.7 57.7C311.1 58.3 313.1 59.1 316.2 60.2C319.3 61.3 321.8 62.5 323.8 63.3C325.5 64.1 327.2 65.6 328.9 67.2C330.3 68.9 331.2 71.4 331.2 74.2C331.2 78.4 329.5 81.8 326.4 84.3C323.3 86.8 319.1 88 313.7 88C310.2 88.2 307.1 87.6 304.6 86.5Z" fill="white"></path><path d="M338.1 87.4C337.8 87.1 337.8 87.1 337.8 86.8V41.2C337.8 40.9 337.8 40.9 338.1 40.6C338.4 40.3 338.4 40.3 338.7 40.3H346.6C346.9 40.3 346.9 40.3 347.2 40.6C347.5 40.9 347.5 40.9 347.5 41.2V79.2C347.5 79.5 347.5 79.5 347.8 79.5H369.8C370.1 79.5 370.1 79.5 370.4 79.8C370.7 80.1 370.7 80.1 370.7 80.4V86.9C370.7 87.2 370.7 87.2 370.4 87.5C370.1 87.8 370.1 87.8 369.8 87.8H338.5C338.3 87.6 338.3 87.6 338.1 87.4Z" fill="white"></path><path d="M376.9 87.4C376.6 87.1 376.6 87.1 376.6 86.8V41.2C376.6 40.9 376.6 40.9 376.9 40.6C377.2 40.3 377.2 40.3 377.5 40.3H385.4C385.7 40.3 385.7 40.3 386 40.6C386.3 40.9 386.3 40.9 386.3 41.2V86.8C386.3 87.1 386.3 87.1 386 87.4C385.7 87.7 385.7 87.7 385.4 87.7H377.5C377.2 87.6 376.9 87.6 376.9 87.4Z" fill="white"></path><path d="M394.7 87.4C394.4 87.1 394.4 87.1 394.4 86.8V41.2C394.4 40.9 394.4 40.9 394.7 40.6C395 40.3 395 40.3 395.3 40.3H412.2C415.6 40.3 418.7 40.9 421.2 42C423.7 43.1 425.7 44.8 427.1 47.1C428.5 49.4 429.1 51.9 429.1 54.7V73.3C429.1 76.1 428.5 78.6 427.1 80.9C425.7 83.2 423.7 84.8 421.2 86C418.7 87.1 415.6 87.7 412.2 87.7H395.3C394.9 87.6 394.7 87.6 394.7 87.4ZM404.2 79.5H412.4C414.4 79.5 416.1 78.9 417.5 77.5C418.9 76.1 419.5 74.1 419.5 71.9V56.1C419.5 53.8 418.9 51.9 417.5 50.5C416.1 49.1 414.4 48.5 412.4 48.5H404.2C403.9 48.5 403.9 48.5 403.9 48.8V79.2C403.9 79.2 403.9 79.5 404.2 79.5Z" fill="white"></path><path d="M468.7 48.2C468.4 48.5 468.4 48.5 468.1 48.5H445.9C445.6 48.5 445.6 48.5 445.6 48.8V59.2C445.6 59.5 445.6 59.5 445.9 59.5H460.5C460.8 59.5 460.8 59.5 461.1 59.8C461.4 60.1 461.4 60.1 461.4 60.4V66.9C461.4 67.2 461.4 67.2 461.1 67.5C460.8 67.8 460.8 67.8 460.5 67.8H445.9C445.6 67.8 445.6 67.8 445.6 68.1V79.1C445.6 79.4 445.6 79.4 445.9 79.4H468.1C468.4 79.4 468.4 79.4 468.7 79.7C469 80 469 80 469 80.3V86.8C469 87.1 469 87.1 468.7 87.4C468.4 87.7 468.4 87.7 468.1 87.7H436.8C436.5 87.7 436.5 87.7 436.2 87.4C435.9 87.1 435.9 87.1 435.9 86.8V41.2C435.9 40.9 435.9 40.9 436.2 40.6C436.5 40.3 436.5 40.3 436.8 40.3H468.1C468.4 40.3 468.4 40.3 468.7 40.6C469 40.9 469 40.9 469 41.2V47.7C469 48 468.7 48.2 468.7 48.2Z" fill="white"></path><path d="M500.5 87.1L492.1 68.5C492.1 68.2 491.8 68.2 491.8 68.2H485.6C485.3 68.2 485.3 68.2 485.3 68.5V87.1C485.3 87.4 485.3 87.4 485 87.7C484.7 88 484.7 88 484.4 88H476.5C476.2 88 476.2 88 475.9 87.7C475.6 87.4 475.6 87.4 475.6 87.1V41.2C475.6 40.9 475.6 40.9 475.9 40.6C476.2 40.3 476.2 40.3 476.5 40.3H496C498.8 40.3 501.3 40.9 503.6 42C505.9 43.1 507.5 44.8 508.7 47.1C509.8 49.4 510.4 51.9 510.4 54.7C510.4 57.8 509.6 60.3 508.1 62.6C506.7 64.9 504.4 66.3 501.6 67.1C501.3 67.1 501.3 67.4 501.3 67.7L510.6 86.8C510.6 87.1 510.6 87.1 510.6 87.1C510.6 87.4 510.3 87.7 509.8 87.7H501.4C501.1 87.6 500.8 87.4 500.5 87.1ZM485 48.8V60.3C485 60.6 485 60.6 485.3 60.6H494C496 60.6 497.4 60 498.5 58.9C499.6 57.8 500.2 56.4 500.2 54.4C500.2 52.7 499.6 51 498.5 49.9C497.4 48.8 495.7 48.2 494 48.2H485.3C485.3 48.5 485 48.5 485 48.8Z" fill="white"></path><path d="M81.2 105.4H5.7C3.6 105.4 1.8 103.7 1.8 101.5V26C1.8 23.9 3.5 22.1 5.7 22.1H81.2C83.3 22.1 85.1 23.8 85.1 26V101.5C85 103.7 83.3 105.4 81.2 105.4Z" fill="url(#paint0_linear_0_23)"></path><path d="M47.4 88.4H25.1C24.2 88.4 23.3 87.5 23.3 86.6V79.7C23.3 78.8 24.2 77.9 25.1 77.9H47.2C48.1 77.9 49 78.8 49 79.7V86.6C48.9 87.5 48.3 88.4 47.4 88.4Z" fill="white"></path><path d="M61.7 69.4H25.1C24.2 69.4 23.3 68.5 23.3 67.6V60.7C23.3 59.8 24.2 58.9 25.1 58.9H61.5C62.4 58.9 63.3 59.8 63.3 60.7V67.6C63.2 68.5 62.6 69.4 61.7 69.4Z" fill="white"></path><path d="M32 68.3H25.1C24.2 68.3 23.3 67.4 23.3 66.5L23.2 43.4C23.2 42.5 24.1 41.6 25 41.6H31.9C32.8 41.6 33.7 42.5 33.7 43.4L33.8 66.5C33.8 67.4 32.9 68.3 32 68.3Z" fill="white"></path><path d="M61.5 88.4H54.6C53.7 88.4 52.8 87.5 52.8 86.6L52.7 60.6C52.7 59.7 53.6 58.8 54.5 58.8H61.4C62.3 58.8 63.2 59.7 63.2 60.6L63.3 86.6C63.3 87.5 62.4 88.4 61.5 88.4Z" fill="white"></path><path d="M61.7 50.4H25.1C24.2 50.4 23.3 49.5 23.3 48.6V41.7C23.3 40.8 24.2 39.9 25.1 39.9H61.5C62.4 39.9 63.3 40.8 63.3 41.7V48.6C63.2 49.5 62.6 50.4 61.7 50.4Z" fill="white"></path><defs><linearGradient id="paint0_linear_0_23" x1="83.9136" y1="23.3047" x2="3.2093" y2="104.009" gradientUnits="userSpaceOnUse"><stop stop-color="#FC6A2C"></stop><stop offset="1" stop-color="#FE516B"></stop></linearGradient></defs></svg>