<svg xmlns="http://www.w3.org/2000/svg" width="415" height="72" viewBox="0 0 415 72" fill="none"><g clip-path="url(#clip0_21_1071)"><path d="M81.1996 46.65C80.6296 45.73 80.9196 44.95 81.8396 44.31L85.1696 42.11C86.0196 41.54 86.7296 41.76 87.4396 42.53C88.9996 44.23 92.0396 46 95.2296 46C98.4196 46 99.8996 45.08 99.8996 42.95C99.8996 40.33 95.7196 39.62 93.1696 38.77C90.6196 37.92 81.9096 35.87 81.9096 28.71C81.9096 21.55 87.9996 18.79 95.0096 18.79C101.17 18.79 105.49 21.27 107.62 24.24C108.26 25.16 107.97 26.01 107.05 26.58L104.07 28.49C103.22 29.06 102.44 28.91 101.66 28.21C100.1 26.86 97.4096 25.52 94.7196 25.52C91.8196 25.52 90.5396 26.65 90.5396 28.28C90.5396 30.9 94.5796 31.61 97.1296 32.46C99.6796 33.31 108.53 35.58 108.53 42.59C108.53 49.6 103.43 53.07 95.0696 53.07C87.9896 53.07 83.3096 50.03 81.1896 46.62L81.1996 46.65Z" fill="white"></path><path d="M111.87 9.75008C111.87 6.70008 114.35 5.08008 116.76 5.08008C119.17 5.08008 121.65 6.71008 121.65 9.75008C121.65 12.7901 119.1 14.7101 116.76 14.7101C114.42 14.7101 111.87 12.8701 111.87 9.75008ZM112.3 50.4001V21.2201C112.3 20.1601 112.94 19.5201 114 19.5201H119.52C120.58 19.5201 121.22 20.1601 121.22 21.2201L121.15 50.4001C121.15 51.4601 120.51 52.1001 119.45 52.1001H114C112.94 52.1001 112.3 51.4601 112.3 50.4001Z" fill="white"></path><path d="M129.37 61.38C128.52 60.6 128.66 59.75 129.51 58.97L132.7 56.28C133.48 55.57 134.26 55.64 135.11 56.28C137.38 58.12 139.86 58.55 141.98 58.55C145.02 58.55 150.55 56.85 150.55 49.84V48.64C148.35 51.12 145.24 52.68 141.13 52.68C132.21 52.68 125.76 45.53 125.76 35.82C125.76 26.11 132.21 19.03 141.13 19.03C145.24 19.03 148.35 20.52 150.55 23.07V21.23C150.55 20.17 151.19 19.53 152.25 19.53H157.7C158.76 19.53 159.4 20.17 159.4 21.23V49.85C159.4 59.2 153.24 66 141.98 66C136.81 66 132.42 64.23 129.37 61.4V61.38ZM150.55 35.81C150.55 30.92 147.29 27.31 142.4 27.31C137.51 27.31 134.32 30.92 134.32 35.81C134.32 40.7 137.51 44.31 142.4 44.31C147.29 44.31 150.55 40.7 150.55 35.81Z" fill="white"></path><path d="M164.721 50.4V21.22C164.721 20.16 165.361 19.52 166.421 19.52H171.871C172.931 19.52 173.571 20.09 173.571 21.15V22.78C175.981 20.16 179.241 19.03 182.211 19.03C185.961 19.03 189.931 20.3 192.271 23.99C195.031 20.24 199.351 19.03 202.971 19.03C208.711 19.03 215.151 22 215.151 32.2V50.4C215.151 51.46 214.511 52.1 213.451 52.1H208.001C206.941 52.1 206.301 51.46 206.301 50.4V33.4C206.301 27.73 202.261 26.74 200.211 26.74C198.161 26.74 194.331 27.73 194.331 33.4V50.4C194.331 51.46 193.691 52.1 192.631 52.1H187.181C186.121 52.1 185.481 51.46 185.481 50.4V33.4C185.481 27.73 181.511 26.74 179.461 26.74C177.411 26.74 173.581 27.73 173.581 33.4V50.4C173.581 51.46 172.941 52.1 171.881 52.1H166.431C165.371 52.1 164.731 51.46 164.731 50.4H164.721Z" fill="white"></path><path d="M219.26 35.81C219.26 25.96 225.78 19.02 234.7 19.02C238.81 19.02 241.85 20.51 244.05 22.99V21.22C244.05 20.16 244.69 19.52 245.75 19.52H251.2C252.26 19.52 252.9 20.16 252.9 21.22V50.4C252.9 51.46 252.26 52.1 251.2 52.1H245.75C244.69 52.1 244.05 51.46 244.05 50.4V48.7C241.85 51.18 238.81 52.67 234.7 52.67C225.77 52.67 219.26 45.52 219.26 35.81ZM244.05 35.81C244.05 30.92 240.86 27.31 235.97 27.31C231.08 27.31 227.82 30.92 227.82 35.81C227.82 40.7 231.08 44.31 235.97 44.31C240.86 44.31 244.05 40.7 244.05 35.81Z" fill="white"></path><path d="M265.371 14.6401V19.5301H273.441C274.081 19.5301 274.501 19.9501 274.501 20.5901V21.5801C274.501 22.2201 274.081 22.6401 273.441 22.6401H265.371V51.0401C265.371 51.6801 264.941 52.1001 264.311 52.1001H262.541C261.901 52.1001 261.481 51.6801 261.481 51.0401V22.6401H257.871C257.231 22.6401 256.811 22.2201 256.811 21.5801V20.5901C256.811 19.9501 257.231 19.5301 257.871 19.5301H261.481V14.5001C261.481 9.19007 264.601 6.07007 269.911 6.07007H274.231C274.871 6.07007 275.291 6.49007 275.291 7.13007V8.26007C275.291 8.90007 274.871 9.32007 274.231 9.32007H270.831C267.431 9.32007 265.381 11.3001 265.381 14.6301L265.371 14.6401Z" fill="white"></path><path d="M276 35.81C276 26.04 282.73 18.95 292.5 18.95C302.27 18.95 308.93 26.03 308.93 35.81C308.93 45.59 302.27 52.74 292.5 52.74C282.73 52.74 276 45.52 276 35.81ZM304.97 35.81C304.97 28.3 300.01 22.7099 292.5 22.7099C284.99 22.7099 279.89 28.3 279.89 35.81C279.89 43.32 284.99 48.91 292.5 48.91C300.01 48.91 304.97 43.31 304.97 35.81Z" fill="white"></path><path d="M329.13 19.1001C329.84 19.0301 330.19 19.3801 330.19 20.0901V21.6501C330.19 22.2901 329.84 22.7101 329.2 22.7801C323.82 23.2801 318.72 26.6101 318.72 33.6901V51.0401C318.72 51.6801 318.3 52.1001 317.66 52.1001H315.89C315.25 52.1001 314.83 51.6801 314.83 51.0401V20.5801C314.83 19.9401 315.25 19.5201 315.89 19.5201H317.66C318.3 19.5201 318.72 19.9401 318.72 20.5801V25.5401C320.92 21.5701 324.81 19.4501 329.13 19.0901V19.1001Z" fill="white"></path><path d="M383.171 31.99V51.04C383.171 51.68 382.751 52.1 382.111 52.1H380.341C379.701 52.1 379.281 51.68 379.281 51.04V32.41C379.281 25.54 375.031 22.56 370.071 22.56C365.111 22.56 360.931 25.54 360.931 32.41V51.04C360.931 51.68 360.511 52.1 359.871 52.1H358.101C357.461 52.1 357.041 51.68 357.041 51.04V32.41C357.041 25.54 352.791 22.56 347.831 22.56C342.871 22.56 338.691 25.54 338.691 32.41V51.04C338.691 51.68 338.271 52.1 337.631 52.1H335.861C335.221 52.1 334.801 51.68 334.801 51.04V20.58C334.801 19.94 335.221 19.52 335.861 19.52H337.631C338.271 19.52 338.691 19.94 338.691 20.58V24.12C340.961 20.58 344.851 19.02 348.751 19.02C353.281 19.02 357.751 20.86 359.731 25.61C361.931 20.86 366.461 19.02 370.991 19.02C377.151 19.02 383.171 22.49 383.171 31.98V31.99Z" fill="white"></path><path d="M389.189 44.9499L390.249 44.3799C390.819 44.0299 391.309 44.1699 391.669 44.7999C393.299 47.6299 396.979 49.6199 401.799 49.6199C407.539 49.6199 410.439 47.4999 410.439 43.2499C410.439 38.5799 403.989 37.5799 400.809 36.7299C397.619 35.8799 389.479 34.5299 389.479 27.8799C389.479 21.9999 394.439 18.8799 401.519 18.8799C407.329 18.8799 411.649 21.1499 413.349 24.3299C413.699 24.8999 413.489 25.3899 412.849 25.7499L411.789 26.2499C411.149 26.5999 410.799 26.3899 410.369 25.8299C409.019 23.7099 405.619 22.0799 401.449 22.0799C396.209 22.0799 393.299 24.1999 393.299 27.7499C393.299 31.9999 399.109 32.8499 402.299 33.6999C405.559 34.5499 414.269 36.1799 414.269 43.1199C414.269 49.5699 409.739 52.8899 401.799 52.8899C395.139 52.8899 390.609 50.3399 388.699 46.3699C388.419 45.7299 388.629 45.2399 389.199 44.9499H389.189Z" fill="white"></path><path d="M67.5 0H3.68C1.64759 0 0 1.64759 0 3.68V67.5C0 69.5324 1.64759 71.18 3.68 71.18H67.5C69.5324 71.18 71.18 69.5324 71.18 67.5V3.68C71.18 1.64759 69.5324 0 67.5 0Z" fill="url(#paint0_radial_21_1071)"></path><path d="M51.06 34.1502L51.46 35.2702C51.91 36.5102 52.88 37.4902 54.12 37.9302L55.24 38.3302C55.34 38.3702 55.34 38.5102 55.24 38.5502L54.12 38.9502C52.88 39.4002 51.9 40.3702 51.46 41.6102L51.06 42.7302C51.02 42.8302 50.88 42.8302 50.84 42.7302L50.44 41.6102C49.99 40.3702 49.02 39.3902 47.78 38.9502L46.66 38.5502C46.56 38.5102 46.56 38.3702 46.66 38.3302L47.78 37.9302C49.02 37.4802 50 36.5102 50.44 35.2702L50.84 34.1502C50.88 34.0502 51.02 34.0502 51.06 34.1502Z" fill="white"></path><path d="M56.0898 31.4601L56.2898 32.0301C56.5198 32.6601 57.0098 33.1501 57.6398 33.3801L58.2098 33.5801C58.2598 33.6001 58.2598 33.6701 58.2098 33.6901L57.6398 33.8901C57.0098 34.1201 56.5198 34.6101 56.2898 35.2401L56.0898 35.8101C56.0698 35.8601 55.9998 35.8601 55.9798 35.8101L55.7798 35.2401C55.5498 34.6101 55.0598 34.1201 54.4298 33.8901L53.8598 33.6901C53.8098 33.6701 53.8098 33.6001 53.8598 33.5801L54.4298 33.3801C55.0598 33.1501 55.5498 32.6601 55.7798 32.0301L55.9798 31.4601C55.9998 31.4101 56.0698 31.4101 56.0898 31.4601Z" fill="white"></path><path d="M56.0898 41.0702L56.2898 41.6402C56.5198 42.2702 57.0098 42.7602 57.6398 42.9902L58.2098 43.1902C58.2598 43.2102 58.2598 43.2802 58.2098 43.3002L57.6398 43.5002C57.0098 43.7302 56.5198 44.2202 56.2898 44.8502L56.0898 45.4202C56.0698 45.4702 55.9998 45.4702 55.9798 45.4202L55.7798 44.8502C55.5498 44.2202 55.0598 43.7302 54.4298 43.5002L53.8598 43.3002C53.8098 43.2802 53.8098 43.2102 53.8598 43.1902L54.4298 42.9902C55.0598 42.7602 55.5498 42.2702 55.7798 41.6402L55.9798 41.0702C55.9998 41.0202 56.0698 41.0202 56.0898 41.0702Z" fill="white"></path><path d="M16.9101 26.45L17.8501 25.75C19.0101 24.88 20.2601 24.15 21.5801 23.58C22.7801 23.05 24.0401 22.66 25.3301 22.4C26.5501 22.15 27.8101 22.02 29.0801 22.02H40.9401C42.2401 22.06 43.5701 21.85 44.8101 21.38C46.3401 20.8 47.7101 19.82 48.7601 18.56C48.8301 18.48 48.8901 18.4 48.9501 18.32C49.0701 18.17 49.1801 18.02 49.2901 17.86C50.1501 16.63 50.7201 15.19 50.9301 13.71L51.0301 12.99H28.3501C27.2201 12.99 26.1001 13.15 25.0301 13.48C23.5201 13.93 22.1401 14.68 20.9301 15.7C20.4301 16.12 19.9601 16.59 19.5401 17.09C18.5201 18.3 17.7701 19.68 17.3201 21.19C17.0001 22.26 16.8301 23.38 16.8301 24.52C16.8301 24.77 16.8301 25.03 16.8501 25.28L16.9301 26.45H16.9101Z" fill="white"></path><path d="M29.0697 26.0701C27.6997 26.0701 26.3497 26.2401 25.0397 26.5801C23.6197 26.9401 22.2597 27.5001 20.9997 28.2301C20.0697 28.7701 19.1897 29.3901 18.3997 30.1101C18.3097 30.1801 18.2197 30.2601 18.1397 30.3401C17.7297 30.7201 17.3297 31.1201 16.9697 31.5401C16.2597 32.3501 15.6197 33.2301 15.0897 34.1501C14.3597 35.4201 13.7997 36.7701 13.4397 38.1901C13.1097 39.5001 12.9297 40.8501 12.9297 42.2201C12.9297 43.5901 13.0997 44.9501 13.4397 46.2601C13.7997 47.6701 14.3697 49.0201 15.0897 50.2901C15.6297 51.2201 16.2497 52.1001 16.9697 52.8901C17.4097 53.4001 17.8997 53.8801 18.3997 54.3201C19.1997 55.0301 20.0797 55.6701 21.0097 56.2001C22.2697 56.9401 23.6297 57.4901 25.0497 57.8501C25.7097 58.0201 26.3797 58.1401 27.0597 58.2301C27.0597 58.2301 27.0797 58.2301 27.1297 58.2301C27.7397 58.2701 31.9497 58.4901 36.1797 56.7001C36.1997 56.7001 36.2197 56.6801 36.2397 56.6701C39.5297 55.2701 42.8297 52.6401 44.4297 47.7601C46.6197 39.2501 38.3697 36.7101 34.8397 37.9201L35.2797 38.7201C35.8697 39.7801 36.1897 40.9901 36.1897 42.2001C36.1897 43.4101 35.8597 44.6801 35.2297 45.7601C34.6097 46.8401 33.7097 47.7401 32.6297 48.3601C32.1497 48.6401 31.6397 48.8601 31.0797 49.0301C29.2397 49.5701 27.1797 49.3201 25.5197 48.3601C24.4397 47.7401 23.5297 46.8401 22.9097 45.7601C22.2897 44.6801 21.9597 43.4501 21.9597 42.2001C21.9597 40.9501 22.2897 39.7201 22.9197 38.6401C23.3697 37.8401 23.9697 37.1501 24.6997 36.5901C24.9597 36.3801 25.2397 36.1901 25.5197 36.0401C26.5897 35.4101 27.8197 35.0801 29.0797 35.0801H40.9397C41.4497 35.1001 41.9597 35.0801 42.5397 35.0101C43.3197 34.9101 44.0797 34.7201 44.7997 34.4501C45.3897 34.2301 45.9597 33.9401 46.4997 33.6001C47.4297 33.0101 48.2597 32.2601 48.9497 31.3801L49.2697 30.9401C50.1297 29.7001 50.6997 28.2701 50.9097 26.7901L51.0097 26.0701H29.0597H29.0697Z" fill="white"></path></g><defs><radialGradient id="paint0_radial_21_1071" cx="0" cy="0" r="1" gradientUnits="userSpaceOnUse" gradientTransform="translate(-5.46001 -0.769998) scale(103.46)"><stop stop-color="#EAFF01"></stop><stop offset="0.08" stop-color="#D2DC29"></stop><stop offset="0.29" stop-color="#98878C"></stop><stop offset="0.44" stop-color="#7451CB"></stop><stop offset="0.51" stop-color="#663DE4"></stop><stop offset="0.64" stop-color="#472FA7"></stop><stop offset="0.81" stop-color="#211E5B"></stop><stop offset="0.94" stop-color="#09142B"></stop><stop offset="1" stop-color="#001019"></stop></radialGradient><clipPath id="clip0_21_1071"><rect width="414.27" height="71.18" fill="white"></rect></clipPath></defs></svg>