<svg xmlns="http://www.w3.org/2000/svg" width="262" height="48" viewBox="0 0 262 48" fill="none"><path d="M14.3858 2.3584H28.7795C29.4829 2.3584 30.1102 2.81275 30.3491 3.49025L42.7901 43.1023C43.1811 44.218 42.3754 45.3902 41.2205 45.3902H2.54057C1.39621 45.3902 0.59043 44.2342 0.963135 43.1265L12.8057 3.51445C13.0367 2.82082 13.6718 2.35571 14.3831 2.35571L14.3858 2.3584Z" fill="url(#paint0_linear_21_998)"></path><path d="M21.8814 22.2178C23.929 22.2178 25.5889 20.5505 25.5889 18.4937C25.5889 16.4369 23.929 14.7695 21.8814 14.7695C19.8338 14.7695 18.1738 16.4369 18.1738 18.4937C18.1738 20.5505 19.8338 22.2178 21.8814 22.2178Z" fill="white"></path><path d="M33.6856 23.7497C33.2381 22.5346 31.9011 21.9136 30.6998 22.3652C27.9964 23.376 24.7842 23.9136 21.4148 23.9136C18.0455 23.9136 14.9132 23.3921 12.2284 22.4028C11.0218 21.9593 9.69005 22.5856 9.25057 23.8034C8.81109 25.0212 9.43169 26.3653 10.6383 26.8089C12.6066 27.5347 14.7774 28.0455 17.06 28.3332C17.2358 29.9596 17.2837 31.6451 17.1985 33.3602C16.9721 37.898 15.8108 42.2315 14.0129 45.245C13.9836 45.2934 13.9623 45.3418 13.9357 45.3902H19.1695C20.3441 42.7826 21.1724 39.7448 21.5826 36.4947C21.9955 39.7448 22.8238 42.7826 23.9958 45.3902H29.2296C29.2056 45.3418 29.1816 45.2934 29.1523 45.245C27.3518 42.2288 26.1932 37.898 25.9668 33.3602C25.8815 31.629 25.9295 29.93 26.1079 28.2875C28.3106 27.9864 30.4095 27.4756 32.3086 26.7632C33.5125 26.3116 34.1278 24.9621 33.6803 23.7497H33.6856Z" fill="white"></path><path d="M47.4199 24.7776C47.4199 19.3431 51.2123 15.4016 56.6337 15.4016C62.0551 15.4016 65.7909 19.3431 65.7909 24.7776C65.7909 30.212 62.0551 34.1535 56.6337 34.1535C51.2123 34.1535 47.4199 30.212 47.4199 24.7776ZM62.1382 24.7776C62.1382 21.4549 59.975 19.0328 56.6337 19.0328C53.2924 19.0328 51.0442 21.4549 51.0442 24.7776C51.0442 28.1003 53.2906 30.5205 56.6337 30.5205C59.9768 30.5205 62.1382 28.0985 62.1382 24.7776Z" fill="white"></path><path d="M68.459 33.2528V21.6534C68.459 21.2314 68.7119 20.9779 69.1329 20.9779H71.2962C71.7171 20.9779 71.9701 21.2031 71.9701 21.5967V22.2155C72.9535 21.1463 74.3297 20.7793 75.5926 20.7793C77.9239 20.7793 80.6214 22.047 80.6214 26.0169V33.2528C80.6214 33.6748 80.3684 33.9283 79.9475 33.9283H77.7842C77.3632 33.9283 77.1103 33.6748 77.1103 33.2528V26.5524C77.1103 24.2722 75.5095 23.7368 74.526 23.7368C73.5426 23.7368 71.9701 24.2722 71.9701 26.5524V33.2528C71.9701 33.6748 71.7171 33.9283 71.2962 33.9283H69.1329C68.7119 33.9283 68.459 33.6748 68.459 33.2528Z" fill="white"></path><path d="M83.2322 27.4531C83.2322 23.595 85.7599 20.7244 89.6637 20.7244C93.5674 20.7244 95.8704 23.5967 95.8704 27.4531V27.7351C95.8704 28.1571 95.6175 28.4106 95.1965 28.4106H86.6018C86.9397 30.1553 88.2026 31.1979 89.8034 31.1979C91.0946 31.1979 91.9101 30.7475 92.4442 30.2688C92.7538 29.9869 93.0333 29.9301 93.3711 30.1837L94.6906 31.1695C95.055 31.4514 95.1399 31.7333 94.887 32.0418C93.7355 33.3929 91.9384 34.2103 89.8034 34.2103C85.843 34.2103 83.2305 31.3096 83.2305 27.4531H83.2322ZM92.5857 26.1854C92.2762 24.6659 91.321 23.5099 89.6654 23.5099C88.0098 23.5099 86.9963 24.5524 86.6602 26.1854H92.5875H92.5857Z" fill="white"></path><path d="M103.568 33.141L110.451 16.1622C110.591 15.8235 110.872 15.6267 111.238 15.6267H112.867C113.231 15.6267 113.513 15.8235 113.654 16.1622L120.508 33.141C120.705 33.5914 120.48 33.9301 119.974 33.9301H117.53C117.165 33.9301 116.912 33.7332 116.771 33.3946L115.787 30.9176H108.288L107.304 33.3946C107.164 33.7332 106.911 33.9301 106.545 33.9301H104.101C103.595 33.9301 103.37 33.5914 103.567 33.141H103.568ZM114.494 27.5931L112.05 21.3714L109.605 27.5931H114.493H114.494Z" fill="white"></path><path d="M121.744 27.4531C121.744 23.5399 124.442 20.7527 128.345 20.7527C130.367 20.7527 132.053 21.5417 133.176 22.836C133.457 23.1747 133.401 23.5116 133.065 23.7935L131.604 24.9194C131.266 25.1729 130.986 25.1446 130.648 24.8626C130.171 24.4407 129.469 24.0736 128.43 24.0736C126.492 24.0736 125.172 25.5098 125.172 27.4531C125.172 29.3964 126.492 30.8326 128.43 30.8326C129.497 30.8326 130.173 30.4939 130.648 30.1003C130.986 29.8184 131.266 29.79 131.604 30.0435L133.065 31.1411C133.429 31.423 133.486 31.7049 133.233 32.0134C132.081 33.3645 130.395 34.1819 128.345 34.1819C124.442 34.1819 121.744 31.3663 121.744 27.4531Z" fill="white"></path><path d="M135.172 27.4531C135.172 23.5399 137.869 20.7527 141.773 20.7527C143.795 20.7527 145.481 21.5417 146.604 22.836C146.885 23.1747 146.828 23.5116 146.492 23.7935L145.031 24.9194C144.693 25.1729 144.414 25.1446 144.076 24.8626C143.599 24.4407 142.896 24.0736 141.858 24.0736C139.919 24.0736 138.6 25.5098 138.6 27.4531C138.6 29.3964 139.919 30.8326 141.858 30.8326C142.925 30.8326 143.6 30.4939 144.076 30.1003C144.414 29.8184 144.693 29.79 145.031 30.0435L146.492 31.1411C146.857 31.423 146.913 31.7049 146.66 32.0134C145.509 33.3645 143.823 34.1819 141.773 34.1819C137.869 34.1819 135.172 31.3663 135.172 27.4531Z" fill="white"></path><path d="M148.596 27.4531C148.596 23.595 151.123 20.7244 155.029 20.7244C158.934 20.7244 161.236 23.5967 161.236 27.4531V27.7351C161.236 28.1571 160.983 28.4106 160.562 28.4106H151.967C152.305 30.1553 153.568 31.1979 155.169 31.1979C156.46 31.1979 157.275 30.7475 157.809 30.2688C158.119 29.9869 158.398 29.9301 158.736 30.1837L160.056 31.1695C160.42 31.4514 160.505 31.7333 160.252 32.0418C159.101 33.3929 157.304 34.2103 155.169 34.2103C151.208 34.2103 148.596 31.3096 148.596 27.4531ZM157.949 26.1854C157.64 24.6659 156.685 23.5099 155.029 23.5099C153.373 23.5099 152.36 24.5524 152.024 26.1854H157.951H157.949Z" fill="white"></path><path d="M163.09 31.7617C162.865 31.3965 162.979 31.0862 163.343 30.8327L164.663 29.9603C165 29.7351 165.28 29.8202 165.561 30.1287C166.178 30.8043 167.387 31.5082 168.651 31.5082C169.916 31.5082 170.505 31.1429 170.505 30.2972C170.505 29.2546 168.848 28.9745 167.836 28.6358C166.824 28.2972 163.37 27.4816 163.37 24.6376C163.37 21.7936 165.786 20.696 168.566 20.696C171.011 20.696 172.723 21.6819 173.567 22.8645C173.82 23.2298 173.706 23.5684 173.342 23.7936L172.162 24.5542C171.824 24.7794 171.517 24.7227 171.207 24.4408C170.59 23.9053 169.521 23.3716 168.455 23.3716C167.303 23.3716 166.797 23.822 166.797 24.4691C166.797 25.5117 168.398 25.7918 169.41 26.1305C170.422 26.4691 173.933 27.3699 173.933 30.1571C173.933 32.9444 171.911 34.3238 168.596 34.3238C165.787 34.3238 163.934 33.1128 163.092 31.7617H163.09Z" fill="white"></path><path d="M175.758 31.7617C175.533 31.3965 175.647 31.0862 176.011 30.8327L177.33 29.9603C177.668 29.7351 177.948 29.8202 178.229 30.1287C178.846 30.8043 180.054 31.5082 181.319 31.5082C182.584 31.5082 183.173 31.1429 183.173 30.2972C183.173 29.2546 181.516 28.9745 180.504 28.6358C179.492 28.2972 176.037 27.4816 176.037 24.6376C176.037 21.7936 178.454 20.696 181.234 20.696C183.679 20.696 185.391 21.6819 186.235 22.8645C186.488 23.2298 186.374 23.5684 186.01 23.7936L184.83 24.5542C184.492 24.7794 184.185 24.7227 183.875 24.4408C183.258 23.9053 182.189 23.3716 181.123 23.3716C179.971 23.3716 179.465 23.822 179.465 24.4691C179.465 25.5117 181.066 25.7918 182.078 26.1305C183.09 26.4691 186.601 27.3699 186.601 30.1571C186.601 32.9444 184.579 34.3238 181.264 34.3238C178.455 34.3238 176.602 33.1128 175.76 31.7617H175.758Z" fill="white"></path><path d="M188.904 17.0913C188.904 15.8803 189.888 15.2332 190.843 15.2332C191.798 15.2332 192.782 15.8803 192.782 17.0913C192.782 18.3023 191.77 19.063 190.843 19.063C189.916 19.063 188.904 18.3307 188.904 17.0913ZM189.072 33.2528V21.6534C189.072 21.2314 189.325 20.9779 189.746 20.9779H191.938C192.359 20.9779 192.612 21.2314 192.612 21.6534L192.583 33.2528C192.583 33.6748 192.33 33.9284 191.91 33.9284H189.746C189.325 33.9284 189.072 33.6748 189.072 33.2528Z" fill="white"></path><path d="M199.38 32.5774V33.2529C199.38 33.6749 199.127 33.9285 198.706 33.9285H196.543C196.122 33.9285 195.869 33.6749 195.869 33.2529V16.3042C195.869 15.8822 196.122 15.6287 196.543 15.6287H198.706C199.127 15.6287 199.38 15.8822 199.38 16.3042V22.3574C200.25 21.3716 201.459 20.7812 203.088 20.7812C206.627 20.7812 209.211 23.5401 209.211 27.455C209.211 31.3699 206.627 34.1554 203.088 34.1554C201.459 34.1554 200.25 33.565 199.38 32.5792V32.5774ZM205.813 27.4532C205.813 25.51 204.522 24.0738 202.584 24.0738C200.645 24.0738 199.382 25.51 199.382 27.4532C199.382 29.3965 200.647 30.8327 202.584 30.8327C204.52 30.8327 205.813 29.3965 205.813 27.4532Z" fill="white"></path><path d="M211.824 17.0913C211.824 15.8803 212.808 15.2332 213.763 15.2332C214.718 15.2332 215.701 15.8803 215.701 17.0913C215.701 18.3023 214.69 19.063 213.763 19.063C212.836 19.063 211.824 18.3307 211.824 17.0913ZM211.992 33.2528V21.6534C211.992 21.2314 212.245 20.9779 212.666 20.9779H214.858C215.279 20.9779 215.532 21.2314 215.532 21.6534L215.503 33.2528C215.503 33.6748 215.25 33.9284 214.829 33.9284H212.666C212.245 33.9284 211.992 33.6748 211.992 33.2528Z" fill="white"></path><path d="M218.789 33.2529V16.3042C218.789 15.8822 219.042 15.6287 219.463 15.6287H221.655C222.076 15.6287 222.328 15.8822 222.328 16.3042L222.3 33.2547C222.3 33.6767 222.047 33.9302 221.626 33.9302H219.463C219.042 33.9302 218.789 33.6767 218.789 33.2547V33.2529Z" fill="white"></path><path d="M225.42 17.0913C225.42 15.8803 226.403 15.2332 227.359 15.2332C228.314 15.2332 229.297 15.8803 229.297 17.0913C229.297 18.3023 228.285 19.063 227.359 19.063C226.432 19.063 225.42 18.3307 225.42 17.0913ZM225.588 33.2528V21.6534C225.588 21.2314 225.841 20.9779 226.262 20.9779H228.453C228.874 20.9779 229.127 21.2314 229.127 21.6534L229.099 33.2528C229.099 33.6748 228.846 33.9284 228.425 33.9284H226.262C225.841 33.9284 225.588 33.6748 225.588 33.2528Z" fill="white"></path><path d="M233.227 30.1837V23.6517H232.215C231.794 23.6517 231.541 23.3982 231.541 22.9762V21.6535C231.541 21.2315 231.794 20.9779 232.215 20.9779H233.227V17.6836C233.227 17.2616 233.48 17.0081 233.901 17.0081H236.064C236.485 17.0081 236.738 17.2616 236.738 17.6836V20.9779H238.816C239.237 20.9779 239.49 21.2315 239.49 21.6535V22.9762C239.49 23.3982 239.237 23.6517 238.816 23.6517H236.738V29.6216C236.738 31.1429 237.665 31.1979 238.48 31.1979H238.676C239.097 31.1979 239.35 31.4514 239.35 31.8734V33.2529C239.35 33.6749 239.097 33.9284 238.676 33.9284H237.019C234.435 33.9284 233.227 32.5773 233.227 30.1837Z" fill="white"></path><path d="M244.182 38.3219L245.923 33.93L241.147 21.7668C240.979 21.3164 241.175 20.9778 241.681 20.9778H243.899C244.263 20.9778 244.516 21.1746 244.658 21.5132L247.635 29.0594L250.64 21.5132C250.78 21.1746 251.061 20.9778 251.427 20.9778H253.645C254.151 20.9778 254.376 21.3164 254.179 21.7668L247.495 38.5755C247.355 38.9141 247.102 39.1109 246.736 39.1109H244.714C244.209 39.1109 244.012 38.7723 244.18 38.3219H244.182Z" fill="white"></path><defs><linearGradient id="paint0_linear_21_998" x1="3.24398" y1="7.19229" x2="36.0193" y2="49.1612" gradientUnits="userSpaceOnUse"><stop stop-color="#007BFF"></stop><stop offset="1" stop-color="#005A9C"></stop></linearGradient></defs></svg>