<svg xmlns="http://www.w3.org/2000/svg" width="500" height="92" viewBox="0 0 500 92" fill="none"><path d="M110.3 78.6L121.9 50C122.1 49.4 122.6 49.1 123.2 49.1H126C126.6 49.1 127.1 49.4 127.3 50L138.9 78.6C139.2 79.4 138.9 79.9 138 79.9H133.9C133.3 79.9 132.9 79.6 132.6 79L130.9 74.8H118.2L116.5 79C116.3 79.6 115.8 79.9 115.2 79.9H111.1C110.3 79.9 109.9 79.3 110.2 78.6H110.3ZM128.7 69.3L124.6 58.8L120.5 69.3H128.7Z" fill="white"></path><path d="M142.7 78.8V50.2C142.7 49.5 143.1 49.1 143.8 49.1H154.1C163.1 49.1 169.2 55.4 169.2 64.5C169.2 73.6 163.1 79.9 154.1 79.9H143.8C143.1 79.9 142.7 79.5 142.7 78.8ZM154.2 73.9C157.2 73.9 163.3 72.1 163.2 64.5C163.2 56.9 157.2 55 154.2 55H148.9V73.9H154.2Z" fill="white"></path><path d="M173.8 78.8V50.2C173.8 49.5 174.2 49.1 174.9 49.1H179.1C179.7 49.1 180.1 49.3 180.4 49.9L189.2 67.4L198 49.9C198.3 49.3 198.7 49.1 199.3 49.1H203.5C204.2 49.1 204.6 49.5 204.6 50.2V78.8C204.6 79.5 204.2 79.9 203.5 79.9H199.6C198.9 79.9 198.5 79.5 198.5 78.8V61.5L191.8 75.5C191.5 76.1 191.1 76.4 190.5 76.4H188.1C187.5 76.4 187.1 76.2 186.8 75.5L180 61.4V78.8C180 79.5 179.6 79.9 178.9 79.9H175.1C174.4 79.9 174 79.5 174 78.8H173.8Z" fill="white"></path><path d="M209.8 78.8V50.2C209.8 49.5 210.2 49.1 210.9 49.1H214.7C215.4 49.1 215.8 49.5 215.8 50.2V78.8C215.8 79.5 215.4 79.9 214.7 79.9H210.9C210.2 79.9 209.8 79.5 209.8 78.8Z" fill="white"></path><path d="M221.2 78.8V50.2C221.2 49.5 221.6 49.1 222.3 49.1H226.2C226.8 49.1 227.2 49.3 227.6 49.9L240.1 69.3V50.3C240.1 49.6 240.5 49.2 241.2 49.2H245C245.7 49.2 246.1 49.6 246.1 50.3V78.9C246.1 79.6 245.7 80 245 80H241.1C240.5 80 240.1 79.8 239.7 79.2L227.2 59.9V78.8C227.2 79.5 226.8 79.9 226.1 79.9H222.2C221.5 79.9 221.1 79.5 221.1 78.8H221.2Z" fill="white"></path><path d="M260 78.6L271.6 50C271.8 49.4 272.3 49.1 272.9 49.1H275.7C276.3 49.1 276.8 49.4 277 50L288.6 78.6C288.9 79.4 288.6 79.9 287.7 79.9H283.6C283 79.9 282.6 79.6 282.3 79L280.6 74.8H267.9L266.2 79C266 79.6 265.5 79.9 264.9 79.9H260.8C259.9 79.9 259.6 79.3 259.9 78.6H260ZM278.5 69.3L274.4 58.8L270.3 69.3H278.5Z" fill="white"></path><path d="M291.2 73.9C290.9 73.3 291.1 72.7 291.6 72.3L294.7 70.1C295.3 69.7 295.8 69.8 296.3 70.3C297.8 72.1 301 74.2 304.7 74.2C308.4 74.2 309.5 72.9 309.5 70.9C309.5 68.9 304.7 67.5 302.3 66.7C299.9 65.9 292 64.4 292 57.6C292 50.8 297.8 48.4 304 48.4C310.2 48.4 313.9 51.1 315.6 54.1C315.9 54.7 315.6 55.2 315.1 55.6L312.1 57.5C311.5 57.9 311.1 57.8 310.5 57.3C309.2 55.9 306.5 54.5 303.2 54.5C299.9 54.5 298.9 55.6 298.9 57.3C298.9 59.9 303.4 60.6 305.9 61.4C308.2 62.2 316.2 64.2 316.2 70.6C316.2 77 311.3 80.3 303.9 80.3C296.5 80.3 292.9 77.1 291 73.8L291.2 73.9Z" fill="white"></path><path d="M320.1 73.9C319.8 73.3 320 72.7 320.5 72.3L323.6 70.1C324.2 69.7 324.7 69.8 325.2 70.3C326.7 72.1 329.9 74.2 333.6 74.2C337.3 74.2 338.4 72.9 338.4 70.9C338.4 68.9 333.6 67.5 331.2 66.7C328.8 65.9 320.9 64.4 320.9 57.6C320.9 50.8 326.7 48.4 332.9 48.4C339.1 48.4 342.8 51.1 344.5 54.1C344.8 54.7 344.5 55.2 344 55.6L341 57.5C340.4 57.9 340 57.8 339.4 57.3C338.1 55.9 335.4 54.5 332.1 54.5C328.8 54.5 327.8 55.6 327.8 57.3C327.8 59.9 332.3 60.6 334.8 61.4C337.1 62.2 345.1 64.2 345.1 70.6C345.1 77 340.2 80.3 332.8 80.3C325.4 80.3 321.8 77.1 319.9 73.8L320.1 73.9Z" fill="white"></path><path d="M349.5 78.8V50.2C349.5 49.5 349.9 49.1 350.6 49.1H354.4C355.1 49.1 355.5 49.5 355.5 50.2V78.8C355.5 79.5 355.1 79.9 354.4 79.9H350.6C349.9 79.9 349.5 79.5 349.5 78.8Z" fill="white"></path><path d="M360.3 73.9C360 73.3 360.2 72.7 360.7 72.3L363.8 70.1C364.4 69.7 364.9 69.8 365.4 70.3C366.9 72.1 370.1 74.2 373.8 74.2C377.5 74.2 378.6 72.9 378.6 70.9C378.6 68.9 373.8 67.5 371.4 66.7C369 65.9 361.1 64.4 361.1 57.6C361.1 50.8 366.9 48.4 373.1 48.4C379.3 48.4 383 51.1 384.7 54.1C385 54.7 384.7 55.2 384.2 55.6L381.2 57.5C380.6 57.9 380.2 57.8 379.6 57.3C378.3 55.9 375.6 54.5 372.3 54.5C369 54.5 368 55.6 368 57.3C368 59.9 372.5 60.6 375 61.4C377.3 62.2 385.3 64.2 385.3 70.6C385.3 77 380.4 80.3 373 80.3C365.6 80.3 362 77.1 360.1 73.8L360.3 73.9Z" fill="white"></path><path d="M397.8 78.8V54.7H389.7C389 54.7 388.6 54.3 388.6 53.6V50.3C388.6 49.6 389 49.2 389.7 49.2H412C412.7 49.2 413.1 49.6 413.1 50.3V53.6C413.1 54.3 412.7 54.7 412 54.7H403.9V78.8C403.9 79.5 403.5 79.9 402.8 79.9H398.9C398.2 79.9 397.8 79.5 397.8 78.8Z" fill="white"></path><path d="M412.6 78.6L424.2 50C424.4 49.4 424.9 49.1 425.5 49.1H428.3C428.9 49.1 429.4 49.4 429.6 50L441.2 78.6C441.5 79.4 441.2 79.9 440.3 79.9H436.2C435.6 79.9 435.2 79.6 434.9 79L433.2 74.8H420.5L418.8 79C418.6 79.6 418.1 79.9 417.5 79.9H413.4C412.5 79.9 412.2 79.3 412.5 78.6H412.6ZM431 69.3L426.9 58.8L422.8 69.3H431Z" fill="white"></path><path d="M445 78.8V50.2C445 49.5 445.4 49.1 446.1 49.1H450C450.6 49.1 451 49.3 451.4 49.9L463.9 69.3V50.3C463.9 49.6 464.3 49.2 465 49.2H468.8C469.5 49.2 469.9 49.6 469.9 50.3V78.9C469.9 79.6 469.5 80 468.8 80H464.9C464.3 80 463.9 79.8 463.5 79.2L451 59.9V78.8C451 79.5 450.6 79.9 449.9 79.9H446C445.3 79.9 444.9 79.5 444.9 78.8H445Z" fill="white"></path><path d="M483.6 78.8V54.7H475.5C474.8 54.7 474.4 54.3 474.4 53.6V50.3C474.4 49.6 474.8 49.2 475.5 49.2H497.8C498.5 49.2 498.9 49.6 498.9 50.3V53.6C498.9 54.3 498.5 54.7 497.8 54.7H489.7V78.8C489.7 79.5 489.3 79.9 488.6 79.9H484.7C484 79.9 483.6 79.5 483.6 78.8Z" fill="white"></path><path d="M110.2 31.8C110 31.4 110.2 31.1 110.5 30.8L112.4 29.4C112.7 29.1 113.1 29.2 113.4 29.6C114.3 30.7 116.3 32 118.5 32C120.7 32 121.4 31.2 121.4 30C121.4 28.8 118.4 27.9 117 27.4C115.5 26.9 110.7 26 110.7 21.8C110.7 17.6 114.3 16.1 118.1 16.1C121.9 16.1 124.2 17.8 125.2 19.6C125.4 20 125.2 20.3 124.9 20.5L123 21.7C122.7 21.9 122.4 21.9 122 21.5C121.2 20.7 119.5 19.8 117.6 19.8C115.7 19.8 115 20.5 115 21.5C115 23.1 117.8 23.5 119.3 24C120.7 24.5 125.6 25.7 125.6 29.6C125.6 33.5 122.6 35.6 118.1 35.6C113.6 35.6 111.4 33.7 110.2 31.6V31.8Z" fill="white"></path><path d="M128.3 34.7V17.2C128.3 16.8 128.6 16.5 129 16.5H131.6C132 16.5 132.2 16.7 132.4 17L137.8 27.7L143.2 17C143.4 16.7 143.6 16.5 144 16.5H146.6C147 16.5 147.3 16.8 147.3 17.2V34.7C147.3 35.1 147 35.4 146.6 35.4H144.2C143.8 35.4 143.5 35.1 143.5 34.7V24.1L139.4 32.7C139.2 33.1 139 33.2 138.6 33.2H137.2C136.8 33.2 136.6 33 136.4 32.7L132.2 24.1V34.7C132.2 35.1 131.9 35.4 131.5 35.4H129.2C128.8 35.4 128.5 35.1 128.5 34.7H128.3Z" fill="white"></path><path d="M149.8 34.6L156.9 17.1C157 16.8 157.3 16.5 157.7 16.5H159.4C159.8 16.5 160.1 16.7 160.2 17.1L167.3 34.6C167.5 35.1 167.3 35.4 166.7 35.4H164.2C163.8 35.4 163.6 35.2 163.4 34.8L162.4 32.2H154.6L153.6 34.8C153.5 35.1 153.2 35.4 152.8 35.4H150.3C149.8 35.4 149.5 35.1 149.7 34.6H149.8ZM161.1 28.9L158.6 22.5L156.1 28.9H161.2H161.1Z" fill="white"></path><path d="M169.7 34.7V17.2C169.7 16.8 170 16.5 170.4 16.5H178.8C181.6 16.5 184.6 18.7 184.6 22.7C184.6 26.7 182.8 27.9 180.7 28.6L184.5 34.5C184.8 35 184.5 35.3 184 35.3H181.2C180.8 35.3 180.6 35.1 180.4 34.8L176.6 28.8H173.5V34.6C173.5 35 173.2 35.3 172.8 35.3H170.4C170 35.3 169.7 35 169.7 34.6V34.7ZM178.2 25.3C179.6 25.3 180.8 24.3 180.8 22.7C180.8 21.1 179.6 20.1 178.2 20.1H173.5V25.3H178.2Z" fill="white"></path><path d="M192.2 34.7V19.9H187.2C186.8 19.9 186.5 19.6 186.5 19.2V17.2C186.5 16.8 186.8 16.5 187.2 16.5H200.9C201.3 16.5 201.6 16.8 201.6 17.2V19.2C201.6 19.6 201.3 19.9 200.9 19.9H196V34.7C196 35.1 195.7 35.4 195.3 35.4H192.9C192.5 35.4 192.2 35.1 192.2 34.7Z" fill="white"></path><path d="M88.16 0H5.74C3.1774 0 1.1 2.0774 1.1 4.64V87.06C1.1 89.6226 3.1774 91.7 5.74 91.7H88.16C90.7226 91.7 92.8 89.6226 92.8 87.06V4.64C92.8 2.0774 90.7226 0 88.16 0Z" fill="white"></path><path d="M76.48 44.56C76.43 44.18 76.33 43.99 75.91 43.94C74.36 43.76 72.82 43.52 71.26 43.34C70.6 43.26 70.24 42.96 70.06 42.31C69.83 41.46 69.55 40.64 69.21 39.83C66.32 41.25 64.78 43.09 63.47 46.47C63.17 47.25 63.04 48.08 63.04 48.92C63.04 48.92 63.04 48.92 63.04 48.93C63.04 57.78 55.82 64.98 46.96 64.98C38.09 64.98 30.89 57.79 30.88 48.93C30.88 40.52 37.38 33.6 45.65 32.93C49.21 32.27 53.38 29.33 55 26.31C54.51 26.14 54.02 25.99 53.52 25.85C52.89 25.67 52.62 25.31 52.55 24.68C52.37 23.13 52.14 21.59 51.95 20.04C51.91 19.7 51.82 19.52 51.43 19.46C48.44 19.03 45.45 19.03 42.47 19.46C42.12 19.51 42.02 19.65 41.98 19.98C41.79 21.53 41.56 23.07 41.38 24.62C41.28 25.47 40.88 25.9 39.63 25.96C38.18 26.03 36.84 26.66 35.75 27.61C34.95 28.31 34.4 28.34 33.79 27.86C32.56 26.9 31.3 25.98 30.08 25.01C29.82 24.8 29.45 24.79 29.18 24.99C26.82 26.75 24.76 28.81 22.99 31.16C22.74 31.5 22.71 31.71 22.99 32.06C23.95 33.26 24.85 34.5 25.8 35.7C26.31 36.35 26.32 36.9 25.61 37.75C24.63 38.92 24.02 40.34 23.91 41.86C23.84 42.77 23.5 43.23 22.77 43.32C21.2 43.52 19.63 43.74 18.05 43.93C17.67 43.97 17.5 44.07 17.43 44.49C17 47.45 17.01 50.4 17.43 53.36C17.48 53.74 17.63 53.85 17.99 53.9C19.57 54.09 21.14 54.32 22.71 54.51C23.57 54.61 23.92 55.15 23.93 56.43C23.94 57.71 24.46 58.88 25.33 59.79C26.27 60.78 26.38 61.39 25.82 62.09C24.85 63.31 23.93 64.57 22.96 65.8C22.77 66.04 22.76 66.39 22.95 66.64C24.73 69.01 26.81 71.08 29.18 72.86C29.55 73.13 29.76 73.06 30.08 72.81C31.3 71.84 32.56 70.92 33.79 69.96C34.26 69.6 34.7 69.52 35.25 69.87C36.83 70.87 38.53 71.59 40.36 71.99C40.99 72.13 41.27 72.51 41.34 73.09C41.54 74.63 41.77 76.18 41.95 77.73C42 78.14 42.09 78.32 42.56 78.39C45.5 78.8 48.43 78.8 51.37 78.39C51.79 78.33 51.9 78.17 51.95 77.78C52.14 76.21 52.36 74.64 52.56 73.07C52.65 72.32 53.11 71.97 54.12 71.92C55.59 71.84 56.97 71.19 58.1 70.25C58.96 69.54 59.52 69.51 60.18 70.03C61.38 70.98 62.63 71.88 63.83 72.83C64.6 73.44 64.69 72.76 67.5 70.2C68.65 69.16 69.75 68.06 70.75 66.87C71.14 66.4 71.24 66.19 70.91 65.78C69.94 64.56 69.02 63.29 68.05 62.07C67.71 61.64 67.67 61.05 67.95 60.57C68.88 58.95 69.58 57.23 70.08 55.44C70.24 54.88 70.56 54.59 71.13 54.52C72.68 54.32 74.22 54.08 75.78 53.92C76.29 53.87 76.43 53.68 76.49 53.19C76.68 51.77 76.79 50.34 76.78 48.9C76.8 47.44 76.68 45.99 76.48 44.54V44.56Z" fill="#0099FF"></path><path d="M42.03 78.08C42.11 78.27 42.25 78.36 42.56 78.41C42.71 78.43 42.86 78.45 43.01 78.47C42.68 78.35 42.35 78.23 42.03 78.08Z" fill="white"></path><path d="M70.17 34.11C69.25 34.41 68.44 34.73 67.74 35.08C65.76 36.06 64.52 37.31 63.55 39.3C63.21 39.99 62.91 40.78 62.61 41.67C62.34 42.5 61.16 42.5 60.89 41.67C59.45 37.28 57.72 35.55 53.33 34.11C52.5 33.84 52.5 32.66 53.33 32.39C53.96 32.18 54.54 31.97 55.07 31.74C57.35 30.76 58.73 29.54 59.79 27.51C60.19 26.74 60.55 25.86 60.88 24.83C61.15 24 62.33 24 62.6 24.83C62.87 25.64 63.14 26.35 63.44 26.99C64.59 29.45 66.09 30.81 68.79 31.89C69.22 32.06 69.67 32.23 70.17 32.39C71 32.66 71 33.84 70.17 34.11Z" fill="#1E2A38"></path><path d="M73.9 20.04C73.48 20.18 73.12 20.32 72.8 20.48C71.9 20.92 71.34 21.49 70.91 22.39C70.76 22.7 70.62 23.06 70.49 23.46C70.37 23.84 69.83 23.84 69.71 23.46C69.06 21.48 68.28 20.69 66.29 20.04C65.92 19.92 65.92 19.38 66.29 19.26C66.58 19.17 66.84 19.07 67.08 18.97C68.11 18.53 68.74 17.98 69.21 17.06C69.39 16.71 69.55 16.31 69.7 15.85C69.82 15.48 70.36 15.48 70.48 15.85C70.6 16.21 70.72 16.54 70.86 16.83C71.38 17.94 72.06 18.56 73.28 19.05C73.47 19.13 73.68 19.2 73.9 19.27C74.28 19.39 74.28 19.93 73.9 20.05V20.04Z" fill="#1E2A38"></path><path d="M47.51 49.21C50.2217 49.21 52.42 47.0117 52.42 44.3C52.42 41.5883 50.2217 39.39 47.51 39.39C44.7983 39.39 42.6 41.5883 42.6 44.3C42.6 47.0117 44.7983 49.21 47.51 49.21Z" fill="#0099FF"></path><path d="M47.51 51.86C42.03 51.86 37.28 55.11 35.09 59.77C36.72 61.55 38.75 62.96 41.03 63.86C41.77 60.99 44.39 58.86 47.5 58.86C50.44 58.86 52.95 60.78 53.83 63.44C56.04 62.38 57.98 60.85 59.48 58.95C57.15 54.73 52.65 51.86 47.49 51.86H47.51Z" fill="#0099FF"></path></svg>