<svg xmlns="http://www.w3.org/2000/svg" width="851" height="140" viewBox="0 0 851 140" fill="none"><g clip-path="url(#clip0_21_1255)"><path d="M209.907 115.029C201.464 115.029 194.36 113.137 188.596 109.347C182.833 105.558 178.774 100.406 176.421 93.8818L190.792 85.449C194.12 94.1717 200.652 98.5303 210.398 98.5303C215.104 98.5303 218.558 97.6771 220.748 95.9654C222.938 94.2537 224.039 92.0936 224.039 89.485C224.039 86.4717 222.698 84.1256 220.018 82.4576C217.338 80.7897 212.55 78.974 205.647 77.0162C201.829 75.8732 198.604 74.7357 195.967 73.5928C193.33 72.4553 190.688 70.924 188.052 69.01C185.415 67.0959 183.405 64.6678 182.027 61.7365C180.643 58.8053 179.956 55.3818 179.956 51.4662C179.956 43.7225 182.697 37.5537 188.177 32.949C193.657 28.3443 200.249 26.042 207.963 26.042C214.859 26.042 220.933 27.7318 226.169 31.117C231.404 34.5021 235.484 39.2053 238.404 45.2373L224.278 53.4295C220.868 46.0959 215.431 42.4264 207.963 42.4264C204.471 42.4264 201.731 43.2193 199.742 44.8107C197.754 46.4022 196.757 48.4584 196.757 50.985C196.757 53.6756 197.874 55.8576 200.107 57.5256C202.341 59.199 206.623 61.0092 212.953 62.967C215.551 63.7818 217.518 64.4162 218.858 64.8592C220.198 65.3076 222.023 66.0021 224.338 66.9373C226.653 67.8725 228.435 68.7529 229.693 69.5678C230.952 70.3826 232.39 71.4818 234.019 72.8709C235.642 74.26 236.879 75.6818 237.734 77.1475C238.584 78.6131 239.319 80.385 239.924 82.4631C240.534 84.5412 240.839 86.8053 240.839 89.2498C240.839 97.1576 237.979 103.43 232.254 108.073C226.528 112.716 219.081 115.04 209.907 115.04V115.029Z" fill="white"></path><path d="M282.965 27.7485C291.164 27.7485 298.066 30.5212 303.666 36.061C309.266 41.6063 312.066 48.4095 312.066 56.4759C312.066 64.5423 309.266 71.3509 303.666 76.8907C298.066 82.436 291.164 85.2032 282.965 85.2032H267.99V113.318H251.184V27.7485H282.965ZM282.965 69.4313C286.539 69.4313 289.497 68.1899 291.856 65.7017C294.209 63.2188 295.386 60.1399 295.386 56.4704C295.386 52.8009 294.209 49.6235 291.856 47.179C289.502 44.7345 286.539 43.5095 282.965 43.5095H267.99V69.4259H282.965V69.4313Z" fill="white"></path><path d="M323.027 27.7485H339.833V113.318H323.027V27.7485Z" fill="white"></path><path d="M404.976 27.7485H421.781V113.318H408.996L372.464 60.9985V113.318H355.658V27.7485H368.433L404.976 79.8712V27.7485Z" fill="white"></path><path d="M488.216 113.318L463.789 27.7485H472.789L493.86 101.686L516.026 27.7485H526.039L548.238 101.784L569.239 27.7485H577.857L553.528 113.318H543.297L521.027 39.0415L498.757 113.318H488.211H488.216Z" fill="white"></path><path d="M646.436 27.7485H654.962V113.318H646.436V73.347H600.164V113.318H591.639V27.7485H600.164V65.2751H646.436V27.7485Z" fill="white"></path><path d="M682.963 105.252H724.365V113.318H674.443V27.7485H723.761V35.8149H682.969V66.1282H720.715V74.1946H682.969V105.241L682.963 105.252Z" fill="white"></path><path d="M747.501 105.252H788.902V113.318H738.98V27.7485H788.298V35.8149H747.506V66.1282H785.253V74.1946H747.506V105.241L747.501 105.252Z" fill="white"></path><path d="M812.038 105.252H851.005V113.318H803.518V27.7485H812.043V105.246L812.038 105.252Z" fill="white"></path><path d="M127.796 0H11.6634C5.22186 0 0 5.24212 0 11.7086V128.291C0 134.758 5.22186 140 11.6634 140H127.796C134.237 140 139.459 134.758 139.459 128.291V11.7086C139.459 5.24212 134.237 0 127.796 0Z" fill="white"></path><path d="M36.494 60.1889C36.7446 60.3857 37.0442 60.4732 37.3329 60.5936C42.8023 62.874 48.2718 65.1545 53.7412 67.4295C53.8937 67.4951 54.0462 67.5772 54.2042 67.6209C54.5692 67.7248 54.6836 67.9436 54.6128 68.3209C54.4003 69.4639 54.4003 70.6178 54.4766 71.7772C54.4984 72.1381 54.5529 72.4936 54.6019 72.8545C54.6727 73.4068 54.6782 73.4178 54.1388 73.642C51.7255 74.6537 49.3123 75.66 46.899 76.6662C39.4139 79.7889 31.9343 82.9115 24.4493 86.0342C24.2314 86.1272 24.019 86.2365 23.801 86.3404C23.5396 86.2256 23.5232 85.9576 23.4524 85.7389C22.4228 82.5725 21.7201 79.3295 21.3442 76.0154C21.0446 73.374 20.9792 70.7272 21.1099 68.0803C21.3224 63.8037 22.1123 59.6201 23.4361 55.5459C23.4742 55.4311 23.5123 55.3162 23.5559 55.2068C23.6267 55.0154 23.7466 54.9389 23.9481 55.0209C24.1061 55.0865 24.2586 55.1467 24.4166 55.2123C28.0938 56.7436 31.7709 58.2803 35.4535 59.8061C35.6932 59.9045 35.922 60.0522 36.1998 60.0522V60.0467C36.2652 60.167 36.3796 60.1889 36.4994 60.1889H36.494Z" fill="#353A3D"></path><path d="M84.6183 25.7632C83.6596 28.071 82.6899 30.3788 81.742 32.6867C78.5279 40.4906 75.3138 48.2945 72.0997 56.0984C71.8164 56.782 71.8164 56.7984 71.13 56.6999C69.7191 56.5031 68.3136 56.5085 66.9027 56.6999C66.249 56.7929 66.2435 56.7765 65.9766 56.1312C63.5415 50.2195 61.1064 44.3023 58.6713 38.3906C58.546 38.0788 58.448 37.7562 58.2464 37.4773C58.2464 37.357 58.2137 37.2476 58.1048 37.1765H58.1102C58.1102 36.9249 57.9849 36.7117 57.8923 36.4929C56.5032 33.1078 55.1086 29.7226 53.714 26.3429C53.398 25.5773 53.398 25.5773 54.1879 25.3203C57.718 24.1718 61.3243 23.4335 65.0233 23.1328C71.4678 22.6078 77.7652 23.3242 83.9102 25.3421C84.1662 25.4242 84.504 25.4132 84.6129 25.7578L84.6183 25.7632Z" fill="#353A3D"></path><path d="M48.2765 27.8087C48.8322 29.1923 49.3824 30.5814 49.949 31.9595C53.4627 40.5071 56.9818 49.0548 60.501 57.597C60.7262 58.1475 60.6027 58.6051 60.1306 58.9696C59.0574 59.8009 58.1204 60.7579 57.3141 61.8462C56.8729 62.4423 56.9873 62.415 56.2736 62.1142C49.0065 59.0845 41.7394 56.0603 34.4723 53.0306C31.9446 51.9806 29.4223 50.9251 26.8946 49.8751C26.7421 49.8095 26.5787 49.7712 26.4152 49.722V49.7603C26.3662 49.6181 26.2409 49.6126 26.1211 49.6017C25.8541 49.3392 26.0666 49.115 26.181 48.8907C26.8892 47.4689 27.6682 46.0853 28.5235 44.7454C33.1376 37.5103 39.2171 31.8775 46.7675 27.8415C46.9582 27.7376 47.1489 27.6446 47.345 27.5462C47.7336 27.353 48.0423 27.4387 48.2711 27.8032L48.2765 27.8087Z" fill="#FF6706"></path><path d="M28.0116 90.8522C28.2622 90.8413 28.4692 90.7155 28.6925 90.628C37.8173 86.8272 46.9421 83.021 56.0668 79.2202C56.6298 78.9868 57.091 79.1035 57.4505 79.5702C58.2731 80.6475 59.2265 81.5882 60.3051 82.4085C60.8989 82.8569 60.888 82.7147 60.5884 83.4421C58.0552 89.6053 55.5166 95.7686 52.9835 101.932C51.4255 105.716 49.8729 109.495 48.3149 113.28C47.9717 114.116 48.0643 114.067 47.2744 113.662C44.4035 112.186 41.7124 110.436 39.1901 108.418C38.9886 108.254 38.8142 108.04 38.5418 107.98L38.5146 108.008L38.531 108.04C38.5527 107.915 38.4874 107.876 38.3784 107.887L38.3893 107.898C38.4002 107.783 38.3403 107.745 38.2368 107.745L38.2477 107.756C38.2477 107.652 38.1877 107.608 38.0897 107.603L38.1006 107.614C38.0897 107.515 38.0352 107.472 37.9426 107.455L37.9535 107.472C37.9317 107.384 37.8772 107.335 37.7955 107.302C37.0655 106.608 36.3247 105.924 35.6001 105.224C31.8086 101.538 28.7361 97.3217 26.3119 92.6186C26.2684 92.5311 26.2248 92.4491 26.1812 92.3616C25.9143 91.8147 25.9143 91.8147 26.4481 91.5686C26.9711 91.328 27.5322 91.1858 28.017 90.8631L28.0116 90.8522Z" fill="#FF6706"></path><path d="M94.1673 29.6734C92.6039 34.0484 91.3237 38.5164 90.098 42.9953C89.21 46.2492 91.3346 49.0546 94.0911 49.5687C94.9082 49.7218 95.7145 49.6617 96.5153 49.4374C99.3371 48.6554 102.154 47.857 104.943 46.9656C106.381 46.5062 107.814 46.014 109.241 45.5273C109.873 45.314 109.873 45.3031 110.2 45.8445C110.788 46.8398 111.355 47.846 111.861 48.8851C112.144 49.4538 112.144 49.4648 111.567 49.6999C108.8 50.8538 106.027 52.0078 103.259 53.1617C96.1721 56.1148 89.0793 59.0734 81.9919 62.032C81.8612 62.0867 81.7195 62.1249 81.5942 62.2015C81.2565 62.3984 81.044 62.3054 80.8261 61.9882C79.9491 60.7359 78.8759 59.6749 77.6502 58.7671C77.2089 58.439 77.2089 58.4281 77.4323 57.8867C78.7778 54.6163 80.1234 51.346 81.4689 48.0703C83.8496 42.2843 86.2356 36.4984 88.6108 30.7124C88.7306 30.4226 88.894 30.1492 88.9213 29.832C89.2972 29.1867 89.5042 28.4757 89.8038 27.7976C90.0435 27.2562 90.0598 27.2398 90.5883 27.5023C91.6832 28.0382 92.7401 28.6453 93.7806 29.2742C93.944 29.3726 94.1183 29.4601 94.1619 29.6789L94.1673 29.6734Z" fill="#FF6706"></path><path d="M26.127 49.6069C26.2468 49.6179 26.3721 49.6233 26.4211 49.7655C26.3013 49.7491 26.2032 49.6944 26.127 49.6069Z" fill="#C747A3"></path><path d="M115.843 26.7967C115.74 26.7967 115.702 26.7256 115.669 26.6436C115.729 26.6928 115.783 26.7475 115.843 26.7967Z" fill="#C747A3"></path><path d="M115.986 26.9389C115.855 26.9607 115.833 26.8842 115.833 26.7803C115.882 26.835 115.937 26.8842 115.986 26.9389Z" fill="#C747A3"></path><path d="M37.7852 107.292C37.8614 107.324 37.9213 107.374 37.9431 107.461C37.8887 107.406 37.8396 107.352 37.7852 107.292Z" fill="#C747A3"></path><path d="M37.9268 107.444C38.0139 107.461 38.0738 107.504 38.0847 107.603C38.0303 107.548 37.9812 107.499 37.9268 107.444Z" fill="#C747A3"></path><path d="M38.0732 107.592C38.1713 107.598 38.2312 107.642 38.2312 107.745C38.1767 107.696 38.1277 107.642 38.0732 107.592Z" fill="#C747A3"></path><path d="M38.2207 107.734C38.3242 107.734 38.3841 107.773 38.3732 107.887C38.3242 107.838 38.2697 107.784 38.2207 107.734Z" fill="#C747A3"></path><path d="M38.3623 107.882C38.4767 107.871 38.5366 107.909 38.5148 108.035C38.4658 107.986 38.4113 107.931 38.3623 107.882Z" fill="#C747A3"></path><path d="M117.01 69.9125C117.004 75.7477 116.214 80.6969 114.673 85.5258C114.667 85.5477 114.656 85.5695 114.651 85.5969C114.4 86.357 114.4 86.3625 113.676 86.0617C103.799 81.9438 93.9225 77.8258 84.046 73.7023C83.3759 73.4234 83.3814 73.418 83.4794 72.6961C83.6755 71.3016 83.6755 69.9125 83.4794 68.5234C83.3814 67.8344 83.3868 67.8289 84.0187 67.5664C93.9389 63.4266 103.864 59.2922 113.785 55.1578C114.395 54.9008 114.406 54.9063 114.618 55.557C115.675 58.7945 116.389 62.1031 116.743 65.4938C116.922 67.2219 117.031 68.95 117.02 69.918L117.01 69.9125Z" fill="#353A3D"></path><path d="M69.1359 118.907C63.9444 118.929 58.9925 118.114 54.1659 116.545C53.3161 116.271 53.3814 116.337 53.7192 115.511C57.7831 105.629 61.847 95.747 65.9164 85.865C65.9709 85.7338 66.0362 85.6025 66.0798 85.4658C66.1779 85.1705 66.3304 85.0666 66.6682 85.1267C68.2153 85.4111 69.7733 85.4111 71.3204 85.1377C71.729 85.0666 71.8706 85.2142 72.0068 85.5478C72.6823 87.2213 73.3796 88.8892 74.066 90.5572C77.4817 98.8588 80.8974 107.16 84.313 115.462C84.6943 116.386 84.7597 116.26 83.8118 116.572C80.1892 117.753 76.4848 118.492 72.6878 118.781C71.4675 118.874 70.2418 118.896 69.1305 118.913L69.1359 118.907Z" fill="#353A3D"></path><path d="M112.069 91.9351C111.992 92.0991 111.905 92.296 111.807 92.4874C110.505 95.0468 108.996 97.4749 107.264 99.7663C102.835 105.612 97.3764 110.234 90.8774 113.608C89.9731 114.078 90.1147 114.166 89.7007 113.159C85.6313 103.277 81.5674 93.3952 77.5035 83.5132C77.4599 83.4038 77.4218 83.2835 77.3618 83.1796C77.2202 82.9226 77.2692 82.7476 77.5144 82.5726C78.8164 81.6429 79.9386 80.5273 80.8592 79.2148C81.1098 78.8593 81.3495 78.9413 81.66 79.0726C83.2943 79.7616 84.9395 80.4398 86.5792 81.1234C94.865 84.5741 103.151 88.0304 111.437 91.4812C111.589 91.5468 111.747 91.6124 111.9 91.6781C111.992 91.7163 112.063 91.7765 112.069 91.9241V91.9351Z" fill="#FF6706"></path><path d="M69.0324 79.4282C64.1622 79.4282 60.2508 75.4853 60.2617 70.5907C60.2726 65.7563 64.2113 61.797 69.0215 61.7915C73.8427 61.7915 77.8249 65.8056 77.8031 70.6509C77.7813 75.5071 73.859 79.4282 69.0324 79.4228V79.4282ZM66.1234 70.6509C66.1397 72.286 67.4635 73.5985 69.076 73.5657C70.6939 73.5329 71.9632 72.1931 71.936 70.5579C71.9088 68.9556 70.6177 67.6868 69.0161 67.6923C67.3818 67.6978 66.107 69.0048 66.1234 70.6509Z" fill="#FF6706"></path><path d="M58.099 37.1821C58.2134 37.2532 58.2407 37.3626 58.2407 37.4829C58.1426 37.4063 58.0936 37.3079 58.099 37.1821Z" fill="#EA54C0"></path><path d="M36.494 60.1891C36.3687 60.1891 36.2597 60.1672 36.1943 60.0469C36.3196 60.0469 36.4177 60.0906 36.494 60.1891Z" fill="#EA54C0"></path><path d="M93.3723 44.2313L98.7109 28.0548C101.075 20.8962 110.118 18.736 115.441 24.0571C120.763 29.3782 118.644 38.4673 111.524 40.8626L95.4315 46.2821C94.1676 46.7087 92.9582 45.5001 93.3777 44.2313H93.3723Z" fill="#353A3D"></path></g><defs><clipPath id="clip0_21_1255"><rect width="851" height="140" fill="white"></rect></clipPath></defs></svg>