<svg xmlns="http://www.w3.org/2000/svg" width="80" height="16" viewBox="0 0 80 16" fill="none"><path d="M7.52447 1.46352C7.67415 1.00287 8.32585 1.00287 8.47553 1.46353L9.68386 5.18237C9.75079 5.38838 9.94277 5.52786 10.1594 5.52786H14.0696C14.554 5.52786 14.7554 6.14767 14.3635 6.43237L11.2001 8.73075C11.0248 8.85807 10.9515 9.08375 11.0184 9.28976L12.2268 13.0086C12.3764 13.4693 11.8492 13.8523 11.4573 13.5676L8.29389 11.2693C8.11865 11.1419 7.88135 11.1419 7.70611 11.2693L4.54267 13.5676C4.15081 13.8523 3.62357 13.4693 3.77325 13.0086L4.98157 9.28976C5.04851 9.08375 4.97518 8.85807 4.79994 8.73075L1.6365 6.43237C1.24464 6.14767 1.44603 5.52786 1.93039 5.52786H5.84062C6.05723 5.52786 6.24921 5.38838 6.31614 5.18237L7.52447 1.46352Z" fill="#FFA534"></path><path d="M23.5245 1.46352C23.6741 1.00287 24.3259 1.00287 24.4755 1.46353L25.6839 5.18237C25.7508 5.38838 25.9428 5.52786 26.1594 5.52786H30.0696C30.554 5.52786 30.7554 6.14767 30.3635 6.43237L27.2001 8.73075C27.0248 8.85807 26.9515 9.08375 27.0184 9.28976L28.2268 13.0086C28.3764 13.4693 27.8492 13.8523 27.4573 13.5676L24.2939 11.2693C24.1186 11.1419 23.8814 11.1419 23.7061 11.2693L20.5427 13.5676C20.1508 13.8523 19.6236 13.4693 19.7732 13.0086L20.9816 9.28976C21.0485 9.08375 20.9752 8.85807 20.7999 8.73075L17.6365 6.43237C17.2446 6.14767 17.446 5.52786 17.9304 5.52786H21.8406C22.0572 5.52786 22.2492 5.38838 22.3161 5.18237L23.5245 1.46352Z" fill="#FFA534"></path><path d="M39.5245 1.46352C39.6741 1.00287 40.3259 1.00287 40.4755 1.46353L41.6839 5.18237C41.7508 5.38838 41.9428 5.52786 42.1594 5.52786H46.0696C46.554 5.52786 46.7554 6.14767 46.3635 6.43237L43.2001 8.73075C43.0248 8.85807 42.9515 9.08375 43.0184 9.28976L44.2268 13.0086C44.3764 13.4693 43.8492 13.8523 43.4573 13.5676L40.2939 11.2693C40.1186 11.1419 39.8814 11.1419 39.7061 11.2693L36.5427 13.5676C36.1508 13.8523 35.6236 13.4693 35.7732 13.0086L36.9816 9.28976C37.0485 9.08375 36.9752 8.85807 36.7999 8.73075L33.6365 6.43237C33.2446 6.14767 33.446 5.52786 33.9304 5.52786H37.8406C38.0572 5.52786 38.2492 5.38838 38.3161 5.18237L39.5245 1.46352Z" fill="#FFA534"></path><path d="M55.5245 1.46352C55.6741 1.00287 56.3259 1.00287 56.4755 1.46353L57.6839 5.18237C57.7508 5.38838 57.9428 5.52786 58.1594 5.52786H62.0696C62.554 5.52786 62.7554 6.14767 62.3635 6.43237L59.2001 8.73075C59.0248 8.85807 58.9515 9.08375 59.0184 9.28976L60.2268 13.0086C60.3764 13.4693 59.8492 13.8523 59.4573 13.5676L56.2939 11.2693C56.1186 11.1419 55.8814 11.1419 55.7061 11.2693L52.5427 13.5676C52.1508 13.8523 51.6236 13.4693 51.7732 13.0086L52.9816 9.28976C53.0485 9.08375 52.9752 8.85807 52.7999 8.73075L49.6365 6.43237C49.2446 6.14767 49.446 5.52786 49.9304 5.52786H53.8406C54.0572 5.52786 54.2492 5.38838 54.3161 5.18237L55.5245 1.46352Z" fill="#FFA534"></path><path d="M71.5245 1.46352C71.6741 1.00287 72.3259 1.00287 72.4755 1.46353L73.6839 5.18237C73.7508 5.38838 73.9428 5.52786 74.1594 5.52786H78.0696C78.554 5.52786 78.7554 6.14767 78.3635 6.43237L75.2001 8.73075C75.0248 8.85807 74.9515 9.08375 75.0184 9.28976L76.2268 13.0086C76.3764 13.4693 75.8492 13.8523 75.4573 13.5676L72.2939 11.2693C72.1186 11.1419 71.8814 11.1419 71.7061 11.2693L68.5427 13.5676C68.1508 13.8523 67.6236 13.4693 67.7732 13.0086L68.9816 9.28976C69.0485 9.08375 68.9752 8.85807 68.7999 8.73075L65.6365 6.43237C65.2446 6.14767 65.446 5.52786 65.9304 5.52786H69.8406C70.0572 5.52786 70.2492 5.38838 70.3161 5.18237L71.5245 1.46352Z" fill="#FFA534"></path></svg>