<svg xmlns="http://www.w3.org/2000/svg" width="143" height="35" viewBox="0 0 143 35" fill="none"><path d="M37.4537 12.3823H51.87V15.0628H46.1937V30.173H43.0825V15.0628H37.43L37.4537 12.3823ZM51.2525 17.2925H53.9125V19.7832H53.96C54.055 19.4274 54.2212 19.0953 54.4587 18.7632C54.6962 18.4311 54.9812 18.1228 55.3375 17.8618C55.67 17.5772 56.05 17.3637 56.4775 17.1977C56.8812 17.0316 57.3087 16.9367 57.7362 16.9367C58.0687 16.9367 58.3062 16.9604 58.425 16.9604C58.5437 16.9842 58.6862 17.0079 58.805 17.0079V19.7358C58.615 19.6884 58.4012 19.6646 58.1875 19.6409C57.9737 19.6172 57.7837 19.5935 57.57 19.5935C57.095 19.5935 56.6437 19.6883 56.2162 19.8781C55.7887 20.0679 55.4325 20.3525 55.1 20.7083C54.7912 21.0879 54.53 21.5386 54.34 22.0842C54.15 22.6297 54.055 23.2702 54.055 23.9818V30.1018H51.205L51.2525 17.2925ZM71.8675 30.173H69.065V28.3702H69.0175C68.6612 29.0344 68.1387 29.5325 67.45 29.9358C66.7612 30.339 66.0487 30.5288 65.3362 30.5288C63.65 30.5288 62.415 30.1255 61.655 29.2716C60.895 28.4414 60.515 27.1604 60.515 25.4762V17.2925H63.365V25.1916C63.365 26.3302 63.5787 27.1367 64.03 27.5874C64.4575 28.0618 65.075 28.299 65.8587 28.299C66.4525 28.299 66.9512 28.2041 67.355 28.0144C67.7587 27.8246 68.0912 27.5874 68.3287 27.279C68.59 26.9707 68.7562 26.5911 68.875 26.1641C68.9937 25.7372 69.0412 25.2628 69.0412 24.7646V17.2925H71.8912V30.173H71.8675ZM76.7125 26.0455C76.8075 26.8758 77.1162 27.4451 77.6625 27.8009C78.2087 28.133 78.8737 28.299 79.6337 28.299C79.895 28.299 80.2037 28.2753 80.5362 28.2279C80.8687 28.1804 81.2012 28.1093 81.4862 27.9907C81.795 27.8721 82.0325 27.706 82.2225 27.4688C82.4125 27.2316 82.5075 26.9469 82.4837 26.5911C82.46 26.2353 82.3412 25.9269 82.08 25.6897C81.8187 25.4525 81.51 25.2865 81.13 25.1204C80.75 24.9781 80.2987 24.8595 79.8 24.7646C79.3012 24.6697 78.8025 24.5511 78.28 24.4325C77.7575 24.3139 77.235 24.1716 76.7362 24.0056C76.2375 23.8395 75.81 23.626 75.4062 23.3176C75.0262 23.033 74.6937 22.6772 74.48 22.2265C74.2425 21.7758 74.1237 21.2539 74.1237 20.5897C74.1237 19.8781 74.29 19.3088 74.6462 18.8344C74.9787 18.36 75.43 17.9804 75.9525 17.6958C76.475 17.4111 77.0687 17.1977 77.71 17.0791C78.3512 16.9604 78.9687 16.913 79.5387 16.913C80.2037 16.913 80.845 16.9842 81.4387 17.1265C82.0325 17.2688 82.6025 17.4823 83.0775 17.8144C83.5762 18.1228 83.98 18.5497 84.2887 19.0479C84.6212 19.546 84.8112 20.1628 84.9062 20.8744H81.9375C81.795 20.1865 81.4862 19.7358 81.0112 19.4986C80.5125 19.2614 79.9662 19.1428 79.325 19.1428C79.135 19.1428 78.8737 19.1665 78.6125 19.1902C78.3275 19.2377 78.09 19.2851 77.8287 19.38C77.5912 19.4749 77.3775 19.6172 77.2112 19.7832C77.045 19.9493 76.95 20.1865 76.95 20.4711C76.95 20.8269 77.0687 21.0879 77.3062 21.3014C77.5437 21.5149 77.8525 21.6809 78.2562 21.847C78.6362 21.9893 79.0875 22.1079 79.5862 22.2028C80.085 22.2976 80.6075 22.4163 81.13 22.5349C81.6525 22.6535 82.1512 22.7958 82.65 22.9618C83.1487 23.1279 83.6 23.3414 83.98 23.6497C84.36 23.9344 84.6925 24.2902 84.93 24.7172C85.1675 25.1442 85.2862 25.6897 85.2862 26.3065C85.2862 27.0655 85.12 27.706 84.7637 28.2516C84.4075 28.7734 83.9562 29.2241 83.41 29.5562C82.8637 29.8883 82.2225 30.1255 81.5575 30.2916C80.8687 30.4339 80.2037 30.5288 79.5387 30.5288C78.7312 30.5288 77.9712 30.4339 77.2825 30.2441C76.5937 30.0544 75.9762 29.7697 75.4775 29.4139C74.9787 29.0344 74.575 28.5837 74.29 28.0144C74.005 27.4688 73.8387 26.8046 73.815 26.0218H76.6887V26.0455H76.7125ZM86.0937 17.2925H88.255V13.4023H91.105V17.2688H93.67V19.38H91.105V26.259C91.105 26.5674 91.1287 26.8046 91.1525 27.0418C91.1762 27.2553 91.2475 27.4451 91.3187 27.5874C91.4137 27.7297 91.5562 27.8483 91.7225 27.9195C91.9125 27.9907 92.15 28.0381 92.4825 28.0381C92.6725 28.0381 92.8862 28.0381 93.0762 28.0144C93.2662 27.9907 93.48 27.9669 93.67 27.9195V30.1255C93.3612 30.173 93.0525 30.1967 92.7437 30.2204C92.435 30.2679 92.15 30.2679 91.8175 30.2679C91.0575 30.2679 90.4637 30.1967 90.0125 30.0544C89.5612 29.912 89.205 29.6986 88.9437 29.4376C88.6825 29.153 88.5162 28.8209 88.4212 28.4176C88.3262 28.0144 88.2787 27.5162 88.255 26.9944V19.4037H86.0937V17.2451V17.2925ZM95.665 17.2925H98.3487V19.0479H98.3962C98.8 18.2888 99.3462 17.767 100.059 17.4349C100.771 17.1028 101.531 16.9367 102.386 16.9367C103.407 16.9367 104.286 17.1028 105.046 17.4823C105.806 17.8381 106.424 18.3125 106.922 18.953C107.421 19.5697 107.801 20.3051 108.039 21.1353C108.276 21.9656 108.419 22.8669 108.419 23.7921C108.419 24.6697 108.3 25.5 108.086 26.3065C107.849 27.113 107.516 27.8483 107.065 28.4651C106.614 29.0818 106.044 29.58 105.331 29.9595C104.619 30.339 103.811 30.5288 102.861 30.5288C102.457 30.5288 102.03 30.4813 101.626 30.4102C101.222 30.339 100.819 30.2204 100.439 30.0544C100.059 29.8883 99.7025 29.6748 99.3937 29.4139C99.0612 29.153 98.8 28.8446 98.5862 28.5125H98.5387V34.9409H95.6887V17.2925H95.665ZM105.616 23.7446C105.616 23.1753 105.545 22.606 105.379 22.0604C105.236 21.5149 104.999 21.0404 104.69 20.6135C104.381 20.1865 104.001 19.8544 103.574 19.5935C103.122 19.3325 102.6 19.2139 102.03 19.2139C100.842 19.2139 99.94 19.6172 99.3225 20.4474C98.7287 21.2777 98.42 22.3925 98.42 23.7683C98.42 24.4325 98.4912 25.0255 98.6575 25.5711C98.8237 26.1167 99.0375 26.5911 99.37 26.9944C99.6787 27.3976 100.059 27.706 100.51 27.9432C100.961 28.1804 101.46 28.299 102.054 28.299C102.719 28.299 103.241 28.1567 103.692 27.8958C104.144 27.6348 104.5 27.279 104.809 26.8758C105.094 26.4488 105.307 25.9744 105.426 25.4288C105.545 24.8595 105.616 24.3139 105.616 23.7446ZM110.627 12.3823H113.477V15.0628H110.627V12.3823ZM110.627 17.2925H113.477V30.173H110.627V17.2925ZM116.019 12.3823H118.869V30.173H116.019V12.3823ZM127.561 30.5288C126.54 30.5288 125.614 30.3627 124.806 30.0069C123.999 29.6511 123.334 29.2004 122.764 28.6074C122.217 28.0144 121.79 27.279 121.505 26.4488C121.22 25.6186 121.054 24.6935 121.054 23.7209C121.054 22.7483 121.196 21.847 121.505 21.0167C121.79 20.1865 122.217 19.4749 122.764 18.8581C123.31 18.2651 123.999 17.7907 124.806 17.4586C125.614 17.1265 126.54 16.9367 127.561 16.9367C128.582 16.9367 129.509 17.1028 130.316 17.4586C131.124 17.7907 131.789 18.2651 132.359 18.8581C132.905 19.4511 133.332 20.1865 133.617 21.0167C133.902 21.847 134.069 22.7483 134.069 23.7209C134.069 24.7172 133.926 25.6186 133.617 26.4488C133.309 27.279 132.905 27.9907 132.359 28.6074C131.812 29.2004 131.124 29.6748 130.316 30.0069C129.509 30.339 128.606 30.5288 127.561 30.5288ZM127.561 28.2753C128.179 28.2753 128.749 28.133 129.2 27.8721C129.675 27.6111 130.031 27.2553 130.34 26.8283C130.649 26.4014 130.862 25.9032 131.005 25.3814C131.147 24.8358 131.219 24.2902 131.219 23.7209C131.219 23.1753 131.147 22.6297 131.005 22.0842C130.862 21.5386 130.649 21.0642 130.34 20.6372C130.031 20.2102 129.651 19.8781 129.2 19.6172C128.725 19.3563 128.179 19.2139 127.561 19.2139C126.944 19.2139 126.374 19.3563 125.922 19.6172C125.447 19.8781 125.091 20.2339 124.782 20.6372C124.474 21.0642 124.26 21.5386 124.117 22.0842C123.975 22.6297 123.904 23.1753 123.904 23.7209C123.904 24.2902 123.975 24.8358 124.117 25.3814C124.26 25.9269 124.474 26.4014 124.782 26.8283C125.091 27.2553 125.471 27.6111 125.922 27.8721C126.397 28.1567 126.944 28.2753 127.561 28.2753ZM134.924 17.2925H137.085V13.4023H139.935V17.2688H142.5V19.38H139.935V26.259C139.935 26.5674 139.959 26.8046 139.982 27.0418C140.006 27.2553 140.077 27.4451 140.149 27.5874C140.244 27.7297 140.386 27.8483 140.552 27.9195C140.742 27.9907 140.98 28.0381 141.312 28.0381C141.502 28.0381 141.716 28.0381 141.906 28.0144C142.096 27.9907 142.31 27.9669 142.5 27.9195V30.1255C142.191 30.173 141.882 30.1967 141.574 30.2204C141.265 30.2679 140.98 30.2679 140.647 30.2679C139.887 30.2679 139.294 30.1967 138.842 30.0544C138.391 29.912 138.035 29.6986 137.774 29.4376C137.512 29.153 137.346 28.8209 137.251 28.4176C137.156 28.0144 137.109 27.5162 137.085 26.9944V19.4037H134.924V17.2451V17.2925Z" fill="white"></path><path d="M34.1287 12.3823H21.09L17.0762 0L13.0387 12.3823L0 12.3586L10.545 20.0204L6.5075 32.4027L17.0525 24.7409L27.5975 32.4027L23.5837 20.0204L34.1287 12.3823Z" fill="#00B67A"></path><path d="M24.4863 22.8195L23.5838 20.0204L17.0763 24.7408L24.4863 22.8195Z" fill="#005128"></path></svg>