<svg xmlns="http://www.w3.org/2000/svg" width="512" height="128" viewBox="0 0 512 128" fill="none"><path d="M102.4 77.8001V51.1001H111.4V77.0001C111.4 80.0001 112.8 82.5001 117.6 82.5001C122.4 82.5001 123.8 80.0001 123.8 77.0001V51.1001H132.8V77.7001C132.8 86.1001 126.3 91.2001 117.6 91.2001C108.9 91.2001 102.4 86.2001 102.4 77.8001Z" fill="white"></path><path d="M162.3 81.8001V90.5001H139.3V51.1001H148.3V81.8001H162.3Z" fill="white"></path><path d="M188.7 59.8001H178.6V90.5001H169.6V59.8001H159.5V51.1001H188.7V59.8001Z" fill="white"></path><path d="M201.6 51.1001V90.4001H192.6V51.1001H201.6Z" fill="white"></path><path d="M247.599 90.5001H238.599V67.6001L228.399 84.3001H227.399L217.199 67.6001V90.5001H208.199V51.1001H217.199L227.999 68.6001L238.699 51.1001H247.699V90.5001H247.599Z" fill="white"></path><path d="M277.4 84.3002H262.8L260.8 90.5002H251L264.4 51.2002H275.9L289.3 90.5002H279.5L277.4 84.3002ZM274.7 75.8002L270.1 61.4002L265.5 75.8002H274.7Z" fill="white"></path><path d="M316.1 59.8001H306V90.5001H297V59.8001H286.9V51.1001H316.1V59.8001Z" fill="white"></path><path d="M401.501 64.6001C401.501 72.1001 395.501 78.1001 387.701 78.1001H381.801V90.5001H372.801V51.1001H387.701C395.501 51.1001 401.501 57.1001 401.501 64.6001ZM392.501 64.6001C392.501 61.7001 390.501 59.5001 387.701 59.5001H381.801V69.6001H387.701C390.501 69.7001 392.501 67.5001 392.501 64.6001Z" fill="white"></path><path d="M404 70.7998C404 59.1998 413.2 50.2998 424.5 50.2998C435.8 50.2998 445 59.1998 445 70.7998C445 82.3998 435.8 91.2998 424.5 91.2998C413.2 91.2998 404 82.3998 404 70.7998ZM435.9 70.7998C435.9 63.7998 430.8 59.0998 424.4 59.0998C418 59.0998 412.9 63.7998 412.9 70.7998C412.9 77.7998 418 82.4998 424.4 82.4998C430.9 82.4998 435.9 77.7998 435.9 70.7998Z" fill="white"></path><path d="M446.6 81.4998L454.4 76.9998C455.8 80.2998 458.2 82.4998 462.7 82.4998C467 82.4998 468 80.7998 468 79.2998C468 76.8998 465.8 75.8998 459.8 74.2998C454 72.6998 448.2 69.8998 448.2 62.2998C448.2 54.6998 454.6 50.2998 461.4 50.2998C467.9 50.2998 472.9 53.3998 475.8 59.1998L468.2 63.5998C466.8 60.7998 465 58.9998 461.4 58.9998C458.6 58.9998 457.2 60.3998 457.2 61.9998C457.2 63.7998 458.2 64.9998 464.3 66.8998C470.3 68.6998 476.9 70.7998 476.9 79.0998C476.9 86.6998 470.8 91.1998 462.3 91.1998C454.1 91.2998 448.8 87.2998 446.6 81.4998Z" fill="white"></path><path d="M506.399 59.8001H496.299V90.5001H487.299V59.8001H477.199V51.1001H506.399V59.8001Z" fill="white"></path><path d="M350.099 51.2002H320.199V60.0002H350.099V51.2002Z" fill="url(#paint0_linear_21_1187)"></path><path d="M350.099 66.3999H320.199V75.1999H350.099V66.3999Z" fill="white"></path><path d="M350.099 81.6001H320.199V90.4001H350.099V81.6001Z" fill="white"></path><path d="M320.258 66.4004V90.4004H329.058V66.4004H320.258Z" fill="white"></path><path d="M504.1 44.5002H463.3C462 44.5002 461 43.5002 461 42.2002V19.5002C461 18.2002 462 17.2002 463.3 17.2002H504.1C505.4 17.2002 506.4 18.2002 506.4 19.5002V42.2002C506.4 43.5002 505.4 44.5002 504.1 44.5002Z" fill="url(#paint1_linear_21_1187)"></path><path d="M479.7 38.8004H475.6L470.5 31.5004V38.8004H466.9V22.9004H470.5V29.8004L475.4 22.9004H479.5L474.1 30.6004L479.7 38.8004Z" fill="white"></path><path d="M482.4 22.9004H486V38.8004H482.4V22.9004Z" fill="white"></path><path d="M500.8 22.9004V26.4004H496.7V38.8004H493.1V26.4004H489V22.9004H500.8Z" fill="white"></path><path d="M80.9 110.4H6.3C4.2 110.4 2.5 108.7 2.5 106.6V32.0002C2.5 29.9002 4.2 28.2002 6.3 28.2002H80.9C83 28.2002 84.7 29.9002 84.7 32.0002V106.6C84.7 108.7 83 110.4 80.9 110.4Z" fill="url(#paint2_linear_21_1187)"></path><path d="M19 89.1003V55.5003C19 54.6003 19.7 53.9003 20.6 53.9003H27.3C28.2 53.9003 28.9 54.6003 28.9 55.5003V79.3003C28.9 80.2003 29.6 80.9003 30.5 80.9003H37.2C38.1 80.9003 38.8 80.2003 38.8 79.3003V77.2003V67.4003V57.6003V49.4003C38.8 48.5003 39.5 47.8003 40.4 47.8003H48.6H56.8C57.7 47.8003 58.4 48.5003 58.4 49.4003V57.6003H50C49.1 57.6003 48.4 58.3003 48.4 59.2003V65.9003C48.4 66.8003 49.1 67.5003 50 67.5003H56.7C57.6 67.5003 58.3 66.8003 58.3 65.9003V57.7003H66.5C67.4 57.7003 68.1 58.4003 68.1 59.3003V75.8003C68.1 76.7003 67.4 77.4003 66.5 77.4003H60.7H58.3H50C49.1 77.4003 48.4 78.1003 48.4 79.0003V89.3003C48.4 90.2003 47.7 90.9003 46.8 90.9003H20.6C19.7 90.7003 19 90.0003 19 89.1003Z" fill="white"></path><path d="M63.6004 45.5H61.4004V47.7H63.6004V45.5Z" fill="white"></path><path d="M66.7002 49.8003H65.2002V51.3003H66.7002V49.8003Z" fill="white"></path><path d="M67.0004 45.5H65.9004V46.6H67.0004V45.5Z" fill="white"></path><path d="M71.1 50.2002H70V51.3002H71.1V50.2002Z" fill="white"></path><path d="M68.2006 43.1001H67.6006V43.7001H68.2006V43.1001Z" fill="white"></path><path d="M71.1006 42.7002H70.6006V43.2002H71.1006V42.7002Z" fill="white"></path><path d="M69.7006 45.8003H69.1006V46.4003H69.7006V45.8003Z" fill="white"></path><path d="M62.9006 51.9004H61.6006V53.2004H62.9006V51.9004Z" fill="white"></path><path d="M68.3004 53.3003H67.4004V54.2003H68.3004V53.3003Z" fill="white"></path><defs><linearGradient id="paint0_linear_21_1187" x1="320.229" y1="55.6314" x2="350.125" y2="55.6314" gradientUnits="userSpaceOnUse"><stop stop-color="#60DF54"></stop><stop offset="1" stop-color="#08C972"></stop></linearGradient><linearGradient id="paint1_linear_21_1187" x1="460.989" y1="30.8501" x2="506.422" y2="30.8501" gradientUnits="userSpaceOnUse"><stop stop-color="#60DF54"></stop><stop offset="1" stop-color="#08C972"></stop></linearGradient><linearGradient id="paint2_linear_21_1187" x1="84.2957" y1="108.502" x2="2.8261" y2="30.0745" gradientUnits="userSpaceOnUse"><stop stop-color="#08C972"></stop><stop offset="1" stop-color="#60DF54"></stop></linearGradient></defs></svg>