<svg xmlns="http://www.w3.org/2000/svg" width="601" height="110" viewBox="0 0 601 110" fill="none"><g clip-path="url(#clip0_21_1123)"><path d="M153.799 70.4701H175.769V80.6601H139.689V71.2001L161.509 39.7701H139.689V29.5901H175.769V39.0501L153.799 70.4801V70.4701Z" fill="white"></path><path d="M253.54 71.0501H269.84V80.6601H241.1V29.5901H253.54V71.0601V71.0501Z" fill="white"></path><path d="M207.61 28.72C193.13 28.72 181.4 40.46 181.4 54.93C181.4 69.4 193.14 81.14 207.61 81.14C222.08 81.14 233.82 69.4 233.82 54.93C233.82 40.46 222.08 28.72 207.61 28.72ZM207.61 68.71C200 68.71 193.83 62.54 193.83 54.93C193.83 47.32 200 41.15 207.61 41.15C215.22 41.15 221.39 47.32 221.39 54.93C221.39 62.54 215.22 68.71 207.61 68.71Z" fill="white"></path><path d="M299.749 28.72C285.269 28.72 273.539 40.46 273.539 54.93C273.539 69.4 285.279 81.14 299.749 81.14C314.219 81.14 325.959 69.4 325.959 54.93C325.959 40.46 314.219 28.72 299.749 28.72ZM299.749 68.71C292.139 68.71 285.969 62.54 285.969 54.93C285.969 47.32 292.139 41.15 299.749 41.15C307.359 41.15 313.529 47.32 313.529 54.93C313.529 62.54 307.359 68.71 299.749 68.71Z" fill="white"></path><path d="M364.53 56.7999C366.06 58.0099 367.27 59.52 368.17 61.31C369.07 63.1 369.51 65.0199 369.51 67.0599C369.51 69.6299 368.86 71.95 367.55 74.01C366.24 76.07 364.33 77.6999 361.84 78.8899C359.34 80.0799 356.39 80.6699 353 80.6699H334.08V29.95H352.27C355.71 29.95 358.65 30.52 361.07 31.66C363.49 32.8 365.32 34.3399 366.53 36.2799C367.74 38.2199 368.35 40.4 368.35 42.83C368.35 45.84 367.54 48.33 365.91 50.29C364.29 52.25 362.14 53.67 359.47 54.54C361.31 54.83 363 55.5799 364.53 56.7999ZM340.7 51.86H351.83C354.94 51.86 357.34 51.13 359.04 49.68C360.74 48.23 361.58 46.2099 361.58 43.6399C361.58 41.0699 360.73 39.0599 359.04 37.5999C357.35 36.1399 354.89 35.4199 351.69 35.4199H340.7V51.86ZM360.13 72.8799C361.98 71.3299 362.9 69.17 362.9 66.41C362.9 63.65 361.93 61.38 359.99 59.75C358.05 58.13 355.45 57.31 352.2 57.31H340.7V75.2099H352.42C355.72 75.2099 358.29 74.4399 360.13 72.8799Z" fill="white"></path><path d="M385.3 75.2699H403.05V80.65H378.67V29.95H385.29V75.2699H385.3Z" fill="white"></path><path d="M468.17 41.92C470.4 37.97 473.44 34.88 477.3 32.64C481.15 30.41 485.44 29.29 490.14 29.29C495.67 29.29 500.5 30.63 504.62 33.29C508.74 35.96 511.75 39.74 513.64 44.64H505.71C504.31 41.59 502.28 39.23 499.64 37.58C497 35.93 493.83 35.11 490.15 35.11C486.47 35.11 483.43 35.94 480.62 37.58C477.81 39.23 475.6 41.57 474 44.6C472.4 47.63 471.59 51.18 471.59 55.26C471.59 59.34 472.39 62.81 474 65.84C475.6 68.87 477.81 71.22 480.62 72.86C483.43 74.51 486.61 75.33 490.15 75.33C493.69 75.33 497 74.52 499.64 72.89C502.29 71.26 504.31 68.92 505.71 65.87H513.64C511.74 70.72 508.74 74.47 504.62 77.11C500.5 79.76 495.67 81.08 490.14 81.08C485.44 81.08 481.15 79.98 477.3 77.77C473.45 75.56 470.39 72.5 468.17 68.57C465.94 64.64 464.82 60.21 464.82 55.26C464.82 50.31 465.94 45.86 468.17 41.91V41.92Z" fill="white"></path><path d="M574.14 79.3901C571.5 78.2001 569.42 76.5501 567.92 74.4501C566.41 72.3401 565.63 69.9001 565.59 67.1401H572.65C572.89 69.5201 573.87 71.5201 575.6 73.1401C577.32 74.7701 579.84 75.5801 583.13 75.5801C586.42 75.5801 588.76 74.7901 590.58 73.2201C592.4 71.6501 593.31 69.6201 593.31 67.1501C593.31 65.2101 592.78 63.6301 591.71 62.4201C590.64 61.2101 589.3 60.2901 587.71 59.6601C586.11 59.0301 583.95 58.3501 581.23 57.6201C577.88 56.7401 575.2 55.8701 573.2 55.0001C571.18 54.1201 569.46 52.7601 568.03 50.8901C566.6 49.0201 565.89 46.5201 565.89 43.3601C565.89 40.5901 566.59 38.1501 568 36.0101C569.4 33.8801 571.38 32.2201 573.93 31.0701C576.47 29.9101 579.4 29.3201 582.7 29.3201C587.45 29.3201 591.35 30.5101 594.38 32.8901C597.41 35.2701 599.12 38.4201 599.52 42.3501H592.24C592 40.4101 590.98 38.7001 589.19 37.2201C587.4 35.7401 585.01 35.0001 582.06 35.0001C579.29 35.0001 577.04 35.7101 575.29 37.1501C573.54 38.5801 572.67 40.5801 572.67 43.1601C572.67 45.0001 573.19 46.5101 574.24 47.6701C575.28 48.8301 576.57 49.7201 578.09 50.3301C579.61 50.9401 581.76 51.6301 584.53 52.4001C587.88 53.3201 590.57 54.2301 592.61 55.1301C594.64 56.0201 596.4 57.4101 597.85 59.2801C599.31 61.1501 600.03 63.6801 600.03 66.8901C600.03 69.3601 599.37 71.6901 598.06 73.8701C596.75 76.0501 594.81 77.8201 592.24 79.1801C589.67 80.5401 586.64 81.2101 583.14 81.2101C579.64 81.2101 576.8 80.6201 574.15 79.4301V79.3901H574.14Z" fill="white"></path><path d="M530.11 29.9299H523.43V51.9399L530.11 44.5399V29.9299Z" fill="white"></path><path d="M550.96 80.6799H559.63L536.41 55.3299L559.39 29.9299H551.02L530.11 53.4499L523.43 60.6099V80.6799H530.11V61.9999L532.11 59.7399L550.96 80.6799Z" fill="white"></path><path d="M433.18 29.3501C418.9 29.3501 407.33 40.9201 407.33 55.2001C407.33 69.4801 418.9 81.0501 433.18 81.0501C447.46 81.0501 459.03 69.4801 459.03 55.2001C459.03 40.9201 447.46 29.3501 433.18 29.3501ZM433.18 75.7101C421.85 75.7101 412.67 66.5301 412.67 55.2001C412.67 43.8701 421.85 34.6901 433.18 34.6901C444.51 34.6901 453.69 43.8701 453.69 55.2001C453.69 66.5301 444.51 75.7101 433.18 75.7101Z" fill="white"></path><path d="M104.85 109.96H5.11C2.31 109.96 0 107.69 0 104.85V5.11C0 2.36 2.27 0 5.11 0H104.8C107.6 0 109.91 2.27 109.91 5.11V104.8C109.91 107.69 107.64 109.96 104.84 109.96H104.85Z" fill="white"></path><path d="M22.6495 49.7499L50.9195 21.1699H22.5195L22.6495 49.7499Z" fill="#3F8EFC"></path><path d="M80.1199 40.1099L68.9399 51.2899C70.5899 53.1399 72.5499 56.1099 72.5499 58.7699C72.5499 61.9599 71.2799 64.6099 69.2299 66.7399C67.2399 68.7899 64.6599 69.7899 61.5999 69.7899H37.3199L86.7399 21.1699H63.9199L22.6299 62.2899V88.8399L38.3799 88.7299H61.5799C69.7499 88.7299 76.5299 86.2099 82.1699 81.1599C87.6799 76.1199 90.4699 67.8799 90.4699 60.0499C90.4699 51.7699 86.2999 44.8099 80.1199 40.1099Z" fill="#3B28CC"></path></g><defs><clipPath id="clip0_21_1123"><rect width="600.03" height="109.96" fill="white"></rect></clipPath></defs></svg>